<svg width="710" height="517" viewBox="0 0 710 517" fill="none" xmlns="http://www.w3.org/2000/svg">
<path d="M-907.216 -434.308L234.328 -552.376C234.328 -552.376 604.624 52.1485 339.07 172.643C265.245 206.142 207.643 221.16 156.653 223.109C78.2475 226.105 12.4787 212.99 -68.0768 197.754C-123.577 187.257 -184.938 169.275 -268.99 177.968C-554.375 207.485 -753.366 510.433 -753.366 510.433L-907.216 -434.308Z" fill="url(#paint0_linear)"/>
<path d="M-915.357 -513.014L226.187 -631.083C226.187 -631.083 864.999 -329.957 510.71 -11.9785C362.883 120.698 252.055 165.776 151.71 175.321C11.5637 188.651 -107.607 132.736 -273.916 149.937C-559.302 179.454 -795.622 404.468 -795.622 404.468L-915.357 -513.014Z" fill="url(#paint1_linear)"/>
<path d="M-923 -586.914L218.544 -704.983C218.544 -704.983 880.278 -319.01 516.869 -39.8986C363.013 78.2685 249.319 122.303 147.485 134.474C8.78624 151.051 -107.855 99.2853 -272.418 116.306C-417.732 131.335 -553.445 179.906 -679.406 235.914C-718.364 253.237 -793.325 291.101 -793.325 291.101L-923 -586.914Z" fill="url(#paint2_linear)"/>
<defs>
<linearGradient id="paint0_linear" x1="502.718" y1="703.357" x2="407.877" y2="-213.615" gradientUnits="userSpaceOnUse">
<stop stop-color="#290592"/>
<stop offset="1" stop-color="#7332FC"/>
</linearGradient>
<linearGradient id="paint1_linear" x1="693.968" y1="562.896" x2="602.166" y2="-324.69" gradientUnits="userSpaceOnUse">
<stop stop-color="#290592"/>
<stop offset="1" stop-color="#7332FC"/>
</linearGradient>
<linearGradient id="paint2_linear" x1="690.893" y1="437.167" x2="602.886" y2="-413.728" gradientUnits="userSpaceOnUse">
<stop stop-color="#290592"/>
<stop offset="1" stop-color="#7332FC"/>
</linearGradient>
</defs>
</svg>
