<svg width="76" height="76" viewBox="0 0 76 76" fill="none" xmlns="http://www.w3.org/2000/svg">
<path d="M38 0.5C17.3225 0.5 0.5 17.3225 0.5 38V53.5362C0.5 57.3762 3.86375 60.5 8 60.5H11.75C12.7446 60.5 13.6984 60.1049 14.4016 59.4017C15.1049 58.6984 15.5 57.7446 15.5 56.75V37.4638C15.5 36.4692 15.1049 35.5154 14.4016 34.8121C13.6984 34.1088 12.7446 33.7138 11.75 33.7138H8.345C10.43 19.2013 22.9175 8 38 8C53.0825 8 65.57 19.2013 67.655 33.7138H64.25C63.2554 33.7138 62.3016 34.1088 61.5983 34.8121C60.8951 35.5154 60.5 36.4692 60.5 37.4638V60.5C60.5 64.6363 57.1362 68 53 68H45.5V64.25H30.5V75.5H53C61.2725 75.5 68 68.7725 68 60.5C72.1363 60.5 75.5 57.3762 75.5 53.5362V38C75.5 17.3225 58.6775 0.5 38 0.5Z" fill="#844BFE"/>
</svg>
