<svg width="206" height="51" viewBox="0 0 206 51" fill="none" xmlns="http://www.w3.org/2000/svg">
<mask id="path-1-outside-1" maskUnits="userSpaceOnUse" x="0.860107" y="0" width="205" height="51" fill="black">
<rect fill="white" x="0.860107" width="205" height="51"/>
<path d="M4.71011 38.2133C3.94344 38.2133 3.27677 37.93 2.71011 37.3633C2.14344 36.7967 1.86011 36.13 1.86011 35.3633V15.0633C1.86011 14.2967 2.14344 13.63 2.71011 13.0633C3.27677 12.4967 3.94344 12.2133 4.71011 12.2133H21.6101C22.3768 12.2133 23.0434 12.4967 23.6101 13.0633C24.1768 13.63 24.4601 14.2967 24.4601 15.0633V35.3633C24.4601 36.13 24.1768 36.7967 23.6101 37.3633C23.0434 37.93 22.3768 38.2133 21.6101 38.2133H20.7101C19.9434 38.2133 19.2768 37.93 18.7101 37.3633C18.1434 36.7967 17.8601 36.13 17.8601 35.3633V17.6633C17.8601 17.3633 17.7268 17.2133 17.4601 17.2133H8.86011C8.59344 17.2133 8.46011 17.3633 8.46011 17.6633V35.3633C8.46011 36.13 8.17677 36.7967 7.61011 37.3633C7.04344 37.93 6.37677 38.2133 5.61011 38.2133H4.71011Z"/>
<path d="M46.6523 18.6633C45.6856 17.2633 44.219 16.5633 42.2523 16.5633C40.2856 16.5633 38.8023 17.2633 37.8023 18.6633C36.8356 20.03 36.3523 22.2133 36.3523 25.2133C36.3523 28.2133 36.8356 30.4133 37.8023 31.8133C38.8023 33.18 40.2856 33.8633 42.2523 33.8633C44.219 33.8633 45.6856 33.18 46.6523 31.8133C47.6523 30.4133 48.1523 28.2133 48.1523 25.2133C48.1523 22.2133 47.6523 20.03 46.6523 18.6633ZM51.5523 35.2133C49.3523 37.5467 46.2523 38.7133 42.2523 38.7133C38.2523 38.7133 35.1356 37.5467 32.9023 35.2133C30.7023 32.8467 29.6023 29.5133 29.6023 25.2133C29.6023 20.9133 30.7023 17.5967 32.9023 15.2633C35.1356 12.8967 38.2523 11.7133 42.2523 11.7133C46.2523 11.7133 49.3523 12.8967 51.5523 15.2633C53.7856 17.5967 54.9023 20.9133 54.9023 25.2133C54.9023 29.5133 53.7856 32.8467 51.5523 35.2133Z"/>
<path d="M67.9632 33.0133C67.8966 33.08 67.8799 33.1633 67.9132 33.2633C67.9799 33.33 68.0632 33.3633 68.1632 33.3633H77.3632C77.6632 33.3633 77.8132 33.23 77.8132 32.9633V17.4633C77.8132 17.1967 77.6632 17.0633 77.3632 17.0633H70.9632C70.6966 17.0633 70.5632 17.1967 70.5632 17.4633C70.5632 21.53 70.5132 24.3467 70.4132 25.9133C70.3132 27.4467 70.0966 28.6967 69.7632 29.6633C69.4632 30.5967 68.8632 31.7133 67.9632 33.0133ZM61.1132 44.2133C60.3466 44.2133 59.6799 43.93 59.1132 43.3633C58.5799 42.7967 58.3132 42.13 58.3132 41.3633V35.2633C58.3132 34.73 58.4799 34.28 58.8132 33.9133C59.1799 33.5467 59.6299 33.3633 60.1632 33.3633C60.3632 33.3633 60.5132 33.2967 60.6132 33.1633C61.8466 31.63 62.6799 30.38 63.1132 29.4133C63.5466 28.4467 63.8299 27.1633 63.9632 25.5633C64.1299 23.93 64.2132 21.0967 64.2132 17.0633V15.0633C64.2132 14.2967 64.4966 13.63 65.0632 13.0633C65.6299 12.4967 66.2966 12.2133 67.0632 12.2133H81.3632C82.1299 12.2133 82.7966 12.4967 83.3632 13.0633C83.9299 13.63 84.2132 14.2967 84.2132 15.0633V32.9633C84.2132 33.23 84.3632 33.3633 84.6632 33.3633H84.8132C85.5799 33.3633 86.2299 33.6467 86.7632 34.2133C87.3299 34.78 87.6132 35.4467 87.6132 36.2133V41.3633C87.6132 42.13 87.3299 42.7967 86.7632 43.3633C86.2299 43.93 85.5799 44.2133 84.8132 44.2133H84.0632C83.2966 44.2133 82.6299 43.93 82.0632 43.3633C81.4966 42.7967 81.2132 42.13 81.2132 41.3633V38.6633C81.2132 38.3633 81.0632 38.2133 80.7632 38.2133H65.1632C64.8632 38.2133 64.7132 38.3633 64.7132 38.6633V41.3633C64.7132 42.13 64.4299 42.7967 63.8632 43.3633C63.2966 43.93 62.6299 44.2133 61.8632 44.2133H61.1132Z"/>
<path d="M99.3781 21.8133V28.6133C99.3781 29.9467 99.9447 31.13 101.078 32.1633C102.245 33.1967 103.595 33.7133 105.128 33.7133C106.895 33.7133 108.295 32.9967 109.328 31.5633C110.361 30.13 110.878 28.0133 110.878 25.2133C110.878 19.5467 108.961 16.7133 105.128 16.7133C103.595 16.7133 102.245 17.23 101.078 18.2633C99.9447 19.2967 99.3781 20.48 99.3781 21.8133ZM95.6281 49.2133C94.8614 49.2133 94.1947 48.93 93.6281 48.3633C93.0614 47.7967 92.7781 47.13 92.7781 46.3633V15.0633C92.7781 14.2967 93.0614 13.63 93.6281 13.0633C94.1947 12.4967 94.8614 12.2133 95.6281 12.2133H96.2281C97.0281 12.2133 97.7114 12.4967 98.2781 13.0633C98.8447 13.5967 99.1447 14.2633 99.1781 15.0633V15.4133C99.1781 15.4467 99.1947 15.4633 99.2281 15.4633C99.2614 15.4633 99.2947 15.4467 99.3281 15.4133C100.528 14.08 101.728 13.13 102.928 12.5633C104.128 11.9967 105.528 11.7133 107.128 11.7133C110.261 11.7133 112.761 12.8967 114.628 15.2633C116.495 17.5967 117.428 20.9133 117.428 25.2133C117.428 29.38 116.445 32.68 114.478 35.1133C112.545 37.5133 110.095 38.7133 107.128 38.7133C104.228 38.7133 101.711 37.6633 99.5781 35.5633C99.5447 35.53 99.5114 35.5133 99.4781 35.5133C99.4447 35.5133 99.4281 35.53 99.4281 35.5633V46.3633C99.4281 47.13 99.1447 47.7967 98.5781 48.3633C98.0447 48.93 97.3947 49.2133 96.6281 49.2133H95.6281Z"/>
<path d="M130.557 37.8133L121.557 14.8633C121.291 14.23 121.341 13.63 121.707 13.0633C122.107 12.4967 122.657 12.2133 123.357 12.2133H124.957C125.791 12.2133 126.541 12.4633 127.207 12.9633C127.874 13.4633 128.341 14.1133 128.607 14.9133L133.807 31.3133C133.807 31.3467 133.824 31.3633 133.857 31.3633C133.891 31.3633 133.907 31.3467 133.907 31.3133L139.107 14.9133C139.341 14.1133 139.791 13.4633 140.457 12.9633C141.124 12.4633 141.891 12.2133 142.757 12.2133H144.057C144.724 12.2133 145.257 12.4967 145.657 13.0633C146.057 13.63 146.141 14.23 145.907 14.8633L137.107 38.3633C135.641 42.2633 133.957 45.0467 132.057 46.7133C130.191 48.38 127.607 49.3467 124.307 49.6133C123.607 49.6467 122.991 49.4133 122.457 48.9133C121.957 48.4467 121.707 47.8633 121.707 47.1633C121.707 46.4633 121.957 45.8467 122.457 45.3133C122.957 44.8133 123.574 44.53 124.307 44.4633C125.941 44.2633 127.207 43.73 128.107 42.8633C129.007 42.03 129.824 40.6133 130.557 38.6133C130.591 38.48 130.607 38.3467 130.607 38.2133C130.607 38.08 130.591 37.9467 130.557 37.8133Z"/>
<path d="M156.792 25.4633V25.9633C156.792 28.33 157.342 30.2133 158.442 31.6133C159.542 33.0133 160.975 33.7133 162.742 33.7133C164.642 33.7133 166.108 33.0467 167.142 31.7133C168.175 30.3467 168.692 28.3633 168.692 25.7633V25.6633C168.692 23.1967 168.142 21.2633 167.042 19.8633C165.975 18.43 164.592 17.7133 162.892 17.7133C161.058 17.7133 159.575 18.3967 158.442 19.7633C157.342 21.13 156.792 23.03 156.792 25.4633ZM162.992 38.7133C158.925 38.7133 155.792 37.53 153.592 35.1633C151.392 32.7633 150.292 29.33 150.292 24.8633V14.8633C150.292 10.0967 151.542 6.63 154.042 4.46333C156.542 2.29667 160.525 1.21333 165.992 1.21333C167.925 1.21333 169.625 1.14667 171.092 1.01333C171.758 0.946666 172.325 1.13 172.792 1.56333C173.292 1.99667 173.542 2.53 173.542 3.16333C173.542 3.86333 173.308 4.48 172.842 5.01333C172.408 5.54667 171.842 5.84667 171.142 5.91333C169.708 6.04667 168.042 6.11333 166.142 6.11333C162.508 6.11333 160.025 6.73 158.692 7.96333C157.392 9.16333 156.742 11.4133 156.742 14.7133V16.5633C156.808 16.5633 156.842 16.53 156.842 16.4633C158.675 13.9633 161.308 12.7133 164.742 12.7133C167.675 12.7133 170.108 13.8967 172.042 16.2633C174.008 18.5967 174.992 21.7467 174.992 25.7133C174.992 29.88 173.942 33.0967 171.842 35.3633C169.742 37.5967 166.792 38.7133 162.992 38.7133Z"/>
<path d="M184.007 38.2133C183.24 38.2133 182.574 37.93 182.007 37.3633C181.44 36.7967 181.157 36.13 181.157 35.3633V15.0633C181.157 14.2967 181.44 13.63 182.007 13.0633C182.574 12.4967 183.24 12.2133 184.007 12.2133H184.957C185.724 12.2133 186.39 12.4967 186.957 13.0633C187.524 13.63 187.807 14.2967 187.807 15.0633V29.1133L187.857 29.1633L187.907 29.1133L195.957 14.6633C196.89 13.03 198.307 12.2133 200.207 12.2133H201.307C202.074 12.2133 202.74 12.4967 203.307 13.0633C203.874 13.63 204.157 14.2967 204.157 15.0633V35.3633C204.157 36.13 203.874 36.7967 203.307 37.3633C202.74 37.93 202.074 38.2133 201.307 38.2133H200.357C199.59 38.2133 198.924 37.93 198.357 37.3633C197.79 36.7967 197.507 36.13 197.507 35.3633V21.3133L197.457 21.2633L197.407 21.3133L189.357 35.7633C188.424 37.3967 187.007 38.2133 185.107 38.2133H184.007Z"/>
</mask>
<path d="M4.71011 38.2133C3.94344 38.2133 3.27677 37.93 2.71011 37.3633C2.14344 36.7967 1.86011 36.13 1.86011 35.3633V15.0633C1.86011 14.2967 2.14344 13.63 2.71011 13.0633C3.27677 12.4967 3.94344 12.2133 4.71011 12.2133H21.6101C22.3768 12.2133 23.0434 12.4967 23.6101 13.0633C24.1768 13.63 24.4601 14.2967 24.4601 15.0633V35.3633C24.4601 36.13 24.1768 36.7967 23.6101 37.3633C23.0434 37.93 22.3768 38.2133 21.6101 38.2133H20.7101C19.9434 38.2133 19.2768 37.93 18.7101 37.3633C18.1434 36.7967 17.8601 36.13 17.8601 35.3633V17.6633C17.8601 17.3633 17.7268 17.2133 17.4601 17.2133H8.86011C8.59344 17.2133 8.46011 17.3633 8.46011 17.6633V35.3633C8.46011 36.13 8.17677 36.7967 7.61011 37.3633C7.04344 37.93 6.37677 38.2133 5.61011 38.2133H4.71011Z" fill="white"/>
<path d="M46.6523 18.6633C45.6856 17.2633 44.219 16.5633 42.2523 16.5633C40.2856 16.5633 38.8023 17.2633 37.8023 18.6633C36.8356 20.03 36.3523 22.2133 36.3523 25.2133C36.3523 28.2133 36.8356 30.4133 37.8023 31.8133C38.8023 33.18 40.2856 33.8633 42.2523 33.8633C44.219 33.8633 45.6856 33.18 46.6523 31.8133C47.6523 30.4133 48.1523 28.2133 48.1523 25.2133C48.1523 22.2133 47.6523 20.03 46.6523 18.6633ZM51.5523 35.2133C49.3523 37.5467 46.2523 38.7133 42.2523 38.7133C38.2523 38.7133 35.1356 37.5467 32.9023 35.2133C30.7023 32.8467 29.6023 29.5133 29.6023 25.2133C29.6023 20.9133 30.7023 17.5967 32.9023 15.2633C35.1356 12.8967 38.2523 11.7133 42.2523 11.7133C46.2523 11.7133 49.3523 12.8967 51.5523 15.2633C53.7856 17.5967 54.9023 20.9133 54.9023 25.2133C54.9023 29.5133 53.7856 32.8467 51.5523 35.2133Z" fill="white"/>
<path d="M67.9632 33.0133C67.8966 33.08 67.8799 33.1633 67.9132 33.2633C67.9799 33.33 68.0632 33.3633 68.1632 33.3633H77.3632C77.6632 33.3633 77.8132 33.23 77.8132 32.9633V17.4633C77.8132 17.1967 77.6632 17.0633 77.3632 17.0633H70.9632C70.6966 17.0633 70.5632 17.1967 70.5632 17.4633C70.5632 21.53 70.5132 24.3467 70.4132 25.9133C70.3132 27.4467 70.0966 28.6967 69.7632 29.6633C69.4632 30.5967 68.8632 31.7133 67.9632 33.0133ZM61.1132 44.2133C60.3466 44.2133 59.6799 43.93 59.1132 43.3633C58.5799 42.7967 58.3132 42.13 58.3132 41.3633V35.2633C58.3132 34.73 58.4799 34.28 58.8132 33.9133C59.1799 33.5467 59.6299 33.3633 60.1632 33.3633C60.3632 33.3633 60.5132 33.2967 60.6132 33.1633C61.8466 31.63 62.6799 30.38 63.1132 29.4133C63.5466 28.4467 63.8299 27.1633 63.9632 25.5633C64.1299 23.93 64.2132 21.0967 64.2132 17.0633V15.0633C64.2132 14.2967 64.4966 13.63 65.0632 13.0633C65.6299 12.4967 66.2966 12.2133 67.0632 12.2133H81.3632C82.1299 12.2133 82.7966 12.4967 83.3632 13.0633C83.9299 13.63 84.2132 14.2967 84.2132 15.0633V32.9633C84.2132 33.23 84.3632 33.3633 84.6632 33.3633H84.8132C85.5799 33.3633 86.2299 33.6467 86.7632 34.2133C87.3299 34.78 87.6132 35.4467 87.6132 36.2133V41.3633C87.6132 42.13 87.3299 42.7967 86.7632 43.3633C86.2299 43.93 85.5799 44.2133 84.8132 44.2133H84.0632C83.2966 44.2133 82.6299 43.93 82.0632 43.3633C81.4966 42.7967 81.2132 42.13 81.2132 41.3633V38.6633C81.2132 38.3633 81.0632 38.2133 80.7632 38.2133H65.1632C64.8632 38.2133 64.7132 38.3633 64.7132 38.6633V41.3633C64.7132 42.13 64.4299 42.7967 63.8632 43.3633C63.2966 43.93 62.6299 44.2133 61.8632 44.2133H61.1132Z" fill="white"/>
<path d="M99.3781 21.8133V28.6133C99.3781 29.9467 99.9447 31.13 101.078 32.1633C102.245 33.1967 103.595 33.7133 105.128 33.7133C106.895 33.7133 108.295 32.9967 109.328 31.5633C110.361 30.13 110.878 28.0133 110.878 25.2133C110.878 19.5467 108.961 16.7133 105.128 16.7133C103.595 16.7133 102.245 17.23 101.078 18.2633C99.9447 19.2967 99.3781 20.48 99.3781 21.8133ZM95.6281 49.2133C94.8614 49.2133 94.1947 48.93 93.6281 48.3633C93.0614 47.7967 92.7781 47.13 92.7781 46.3633V15.0633C92.7781 14.2967 93.0614 13.63 93.6281 13.0633C94.1947 12.4967 94.8614 12.2133 95.6281 12.2133H96.2281C97.0281 12.2133 97.7114 12.4967 98.2781 13.0633C98.8447 13.5967 99.1447 14.2633 99.1781 15.0633V15.4133C99.1781 15.4467 99.1947 15.4633 99.2281 15.4633C99.2614 15.4633 99.2947 15.4467 99.3281 15.4133C100.528 14.08 101.728 13.13 102.928 12.5633C104.128 11.9967 105.528 11.7133 107.128 11.7133C110.261 11.7133 112.761 12.8967 114.628 15.2633C116.495 17.5967 117.428 20.9133 117.428 25.2133C117.428 29.38 116.445 32.68 114.478 35.1133C112.545 37.5133 110.095 38.7133 107.128 38.7133C104.228 38.7133 101.711 37.6633 99.5781 35.5633C99.5447 35.53 99.5114 35.5133 99.4781 35.5133C99.4447 35.5133 99.4281 35.53 99.4281 35.5633V46.3633C99.4281 47.13 99.1447 47.7967 98.5781 48.3633C98.0447 48.93 97.3947 49.2133 96.6281 49.2133H95.6281Z" fill="white"/>
<path d="M130.557 37.8133L121.557 14.8633C121.291 14.23 121.341 13.63 121.707 13.0633C122.107 12.4967 122.657 12.2133 123.357 12.2133H124.957C125.791 12.2133 126.541 12.4633 127.207 12.9633C127.874 13.4633 128.341 14.1133 128.607 14.9133L133.807 31.3133C133.807 31.3467 133.824 31.3633 133.857 31.3633C133.891 31.3633 133.907 31.3467 133.907 31.3133L139.107 14.9133C139.341 14.1133 139.791 13.4633 140.457 12.9633C141.124 12.4633 141.891 12.2133 142.757 12.2133H144.057C144.724 12.2133 145.257 12.4967 145.657 13.0633C146.057 13.63 146.141 14.23 145.907 14.8633L137.107 38.3633C135.641 42.2633 133.957 45.0467 132.057 46.7133C130.191 48.38 127.607 49.3467 124.307 49.6133C123.607 49.6467 122.991 49.4133 122.457 48.9133C121.957 48.4467 121.707 47.8633 121.707 47.1633C121.707 46.4633 121.957 45.8467 122.457 45.3133C122.957 44.8133 123.574 44.53 124.307 44.4633C125.941 44.2633 127.207 43.73 128.107 42.8633C129.007 42.03 129.824 40.6133 130.557 38.6133C130.591 38.48 130.607 38.3467 130.607 38.2133C130.607 38.08 130.591 37.9467 130.557 37.8133Z" fill="white"/>
<path d="M156.792 25.4633V25.9633C156.792 28.33 157.342 30.2133 158.442 31.6133C159.542 33.0133 160.975 33.7133 162.742 33.7133C164.642 33.7133 166.108 33.0467 167.142 31.7133C168.175 30.3467 168.692 28.3633 168.692 25.7633V25.6633C168.692 23.1967 168.142 21.2633 167.042 19.8633C165.975 18.43 164.592 17.7133 162.892 17.7133C161.058 17.7133 159.575 18.3967 158.442 19.7633C157.342 21.13 156.792 23.03 156.792 25.4633ZM162.992 38.7133C158.925 38.7133 155.792 37.53 153.592 35.1633C151.392 32.7633 150.292 29.33 150.292 24.8633V14.8633C150.292 10.0967 151.542 6.63 154.042 4.46333C156.542 2.29667 160.525 1.21333 165.992 1.21333C167.925 1.21333 169.625 1.14667 171.092 1.01333C171.758 0.946666 172.325 1.13 172.792 1.56333C173.292 1.99667 173.542 2.53 173.542 3.16333C173.542 3.86333 173.308 4.48 172.842 5.01333C172.408 5.54667 171.842 5.84667 171.142 5.91333C169.708 6.04667 168.042 6.11333 166.142 6.11333C162.508 6.11333 160.025 6.73 158.692 7.96333C157.392 9.16333 156.742 11.4133 156.742 14.7133V16.5633C156.808 16.5633 156.842 16.53 156.842 16.4633C158.675 13.9633 161.308 12.7133 164.742 12.7133C167.675 12.7133 170.108 13.8967 172.042 16.2633C174.008 18.5967 174.992 21.7467 174.992 25.7133C174.992 29.88 173.942 33.0967 171.842 35.3633C169.742 37.5967 166.792 38.7133 162.992 38.7133Z" fill="white"/>
<path d="M184.007 38.2133C183.24 38.2133 182.574 37.93 182.007 37.3633C181.44 36.7967 181.157 36.13 181.157 35.3633V15.0633C181.157 14.2967 181.44 13.63 182.007 13.0633C182.574 12.4967 183.24 12.2133 184.007 12.2133H184.957C185.724 12.2133 186.39 12.4967 186.957 13.0633C187.524 13.63 187.807 14.2967 187.807 15.0633V29.1133L187.857 29.1633L187.907 29.1133L195.957 14.6633C196.89 13.03 198.307 12.2133 200.207 12.2133H201.307C202.074 12.2133 202.74 12.4967 203.307 13.0633C203.874 13.63 204.157 14.2967 204.157 15.0633V35.3633C204.157 36.13 203.874 36.7967 203.307 37.3633C202.74 37.93 202.074 38.2133 201.307 38.2133H200.357C199.59 38.2133 198.924 37.93 198.357 37.3633C197.79 36.7967 197.507 36.13 197.507 35.3633V21.3133L197.457 21.2633L197.407 21.3133L189.357 35.7633C188.424 37.3967 187.007 38.2133 185.107 38.2133H184.007Z" fill="white"/>
<path d="M4.71011 38.2133C3.94344 38.2133 3.27677 37.93 2.71011 37.3633C2.14344 36.7967 1.86011 36.13 1.86011 35.3633V15.0633C1.86011 14.2967 2.14344 13.63 2.71011 13.0633C3.27677 12.4967 3.94344 12.2133 4.71011 12.2133H21.6101C22.3768 12.2133 23.0434 12.4967 23.6101 13.0633C24.1768 13.63 24.4601 14.2967 24.4601 15.0633V35.3633C24.4601 36.13 24.1768 36.7967 23.6101 37.3633C23.0434 37.93 22.3768 38.2133 21.6101 38.2133H20.7101C19.9434 38.2133 19.2768 37.93 18.7101 37.3633C18.1434 36.7967 17.8601 36.13 17.8601 35.3633V17.6633C17.8601 17.3633 17.7268 17.2133 17.4601 17.2133H8.86011C8.59344 17.2133 8.46011 17.3633 8.46011 17.6633V35.3633C8.46011 36.13 8.17677 36.7967 7.61011 37.3633C7.04344 37.93 6.37677 38.2133 5.61011 38.2133H4.71011Z" stroke="white" stroke-width="2" mask="url(#path-1-outside-1)"/>
<path d="M46.6523 18.6633C45.6856 17.2633 44.219 16.5633 42.2523 16.5633C40.2856 16.5633 38.8023 17.2633 37.8023 18.6633C36.8356 20.03 36.3523 22.2133 36.3523 25.2133C36.3523 28.2133 36.8356 30.4133 37.8023 31.8133C38.8023 33.18 40.2856 33.8633 42.2523 33.8633C44.219 33.8633 45.6856 33.18 46.6523 31.8133C47.6523 30.4133 48.1523 28.2133 48.1523 25.2133C48.1523 22.2133 47.6523 20.03 46.6523 18.6633ZM51.5523 35.2133C49.3523 37.5467 46.2523 38.7133 42.2523 38.7133C38.2523 38.7133 35.1356 37.5467 32.9023 35.2133C30.7023 32.8467 29.6023 29.5133 29.6023 25.2133C29.6023 20.9133 30.7023 17.5967 32.9023 15.2633C35.1356 12.8967 38.2523 11.7133 42.2523 11.7133C46.2523 11.7133 49.3523 12.8967 51.5523 15.2633C53.7856 17.5967 54.9023 20.9133 54.9023 25.2133C54.9023 29.5133 53.7856 32.8467 51.5523 35.2133Z" stroke="white" stroke-width="2" mask="url(#path-1-outside-1)"/>
<path d="M67.9632 33.0133C67.8966 33.08 67.8799 33.1633 67.9132 33.2633C67.9799 33.33 68.0632 33.3633 68.1632 33.3633H77.3632C77.6632 33.3633 77.8132 33.23 77.8132 32.9633V17.4633C77.8132 17.1967 77.6632 17.0633 77.3632 17.0633H70.9632C70.6966 17.0633 70.5632 17.1967 70.5632 17.4633C70.5632 21.53 70.5132 24.3467 70.4132 25.9133C70.3132 27.4467 70.0966 28.6967 69.7632 29.6633C69.4632 30.5967 68.8632 31.7133 67.9632 33.0133ZM61.1132 44.2133C60.3466 44.2133 59.6799 43.93 59.1132 43.3633C58.5799 42.7967 58.3132 42.13 58.3132 41.3633V35.2633C58.3132 34.73 58.4799 34.28 58.8132 33.9133C59.1799 33.5467 59.6299 33.3633 60.1632 33.3633C60.3632 33.3633 60.5132 33.2967 60.6132 33.1633C61.8466 31.63 62.6799 30.38 63.1132 29.4133C63.5466 28.4467 63.8299 27.1633 63.9632 25.5633C64.1299 23.93 64.2132 21.0967 64.2132 17.0633V15.0633C64.2132 14.2967 64.4966 13.63 65.0632 13.0633C65.6299 12.4967 66.2966 12.2133 67.0632 12.2133H81.3632C82.1299 12.2133 82.7966 12.4967 83.3632 13.0633C83.9299 13.63 84.2132 14.2967 84.2132 15.0633V32.9633C84.2132 33.23 84.3632 33.3633 84.6632 33.3633H84.8132C85.5799 33.3633 86.2299 33.6467 86.7632 34.2133C87.3299 34.78 87.6132 35.4467 87.6132 36.2133V41.3633C87.6132 42.13 87.3299 42.7967 86.7632 43.3633C86.2299 43.93 85.5799 44.2133 84.8132 44.2133H84.0632C83.2966 44.2133 82.6299 43.93 82.0632 43.3633C81.4966 42.7967 81.2132 42.13 81.2132 41.3633V38.6633C81.2132 38.3633 81.0632 38.2133 80.7632 38.2133H65.1632C64.8632 38.2133 64.7132 38.3633 64.7132 38.6633V41.3633C64.7132 42.13 64.4299 42.7967 63.8632 43.3633C63.2966 43.93 62.6299 44.2133 61.8632 44.2133H61.1132Z" stroke="white" stroke-width="2" mask="url(#path-1-outside-1)"/>
<path d="M99.3781 21.8133V28.6133C99.3781 29.9467 99.9447 31.13 101.078 32.1633C102.245 33.1967 103.595 33.7133 105.128 33.7133C106.895 33.7133 108.295 32.9967 109.328 31.5633C110.361 30.13 110.878 28.0133 110.878 25.2133C110.878 19.5467 108.961 16.7133 105.128 16.7133C103.595 16.7133 102.245 17.23 101.078 18.2633C99.9447 19.2967 99.3781 20.48 99.3781 21.8133ZM95.6281 49.2133C94.8614 49.2133 94.1947 48.93 93.6281 48.3633C93.0614 47.7967 92.7781 47.13 92.7781 46.3633V15.0633C92.7781 14.2967 93.0614 13.63 93.6281 13.0633C94.1947 12.4967 94.8614 12.2133 95.6281 12.2133H96.2281C97.0281 12.2133 97.7114 12.4967 98.2781 13.0633C98.8447 13.5967 99.1447 14.2633 99.1781 15.0633V15.4133C99.1781 15.4467 99.1947 15.4633 99.2281 15.4633C99.2614 15.4633 99.2947 15.4467 99.3281 15.4133C100.528 14.08 101.728 13.13 102.928 12.5633C104.128 11.9967 105.528 11.7133 107.128 11.7133C110.261 11.7133 112.761 12.8967 114.628 15.2633C116.495 17.5967 117.428 20.9133 117.428 25.2133C117.428 29.38 116.445 32.68 114.478 35.1133C112.545 37.5133 110.095 38.7133 107.128 38.7133C104.228 38.7133 101.711 37.6633 99.5781 35.5633C99.5447 35.53 99.5114 35.5133 99.4781 35.5133C99.4447 35.5133 99.4281 35.53 99.4281 35.5633V46.3633C99.4281 47.13 99.1447 47.7967 98.5781 48.3633C98.0447 48.93 97.3947 49.2133 96.6281 49.2133H95.6281Z" stroke="white" stroke-width="2" mask="url(#path-1-outside-1)"/>
<path d="M130.557 37.8133L121.557 14.8633C121.291 14.23 121.341 13.63 121.707 13.0633C122.107 12.4967 122.657 12.2133 123.357 12.2133H124.957C125.791 12.2133 126.541 12.4633 127.207 12.9633C127.874 13.4633 128.341 14.1133 128.607 14.9133L133.807 31.3133C133.807 31.3467 133.824 31.3633 133.857 31.3633C133.891 31.3633 133.907 31.3467 133.907 31.3133L139.107 14.9133C139.341 14.1133 139.791 13.4633 140.457 12.9633C141.124 12.4633 141.891 12.2133 142.757 12.2133H144.057C144.724 12.2133 145.257 12.4967 145.657 13.0633C146.057 13.63 146.141 14.23 145.907 14.8633L137.107 38.3633C135.641 42.2633 133.957 45.0467 132.057 46.7133C130.191 48.38 127.607 49.3467 124.307 49.6133C123.607 49.6467 122.991 49.4133 122.457 48.9133C121.957 48.4467 121.707 47.8633 121.707 47.1633C121.707 46.4633 121.957 45.8467 122.457 45.3133C122.957 44.8133 123.574 44.53 124.307 44.4633C125.941 44.2633 127.207 43.73 128.107 42.8633C129.007 42.03 129.824 40.6133 130.557 38.6133C130.591 38.48 130.607 38.3467 130.607 38.2133C130.607 38.08 130.591 37.9467 130.557 37.8133Z" stroke="white" stroke-width="2" mask="url(#path-1-outside-1)"/>
<path d="M156.792 25.4633V25.9633C156.792 28.33 157.342 30.2133 158.442 31.6133C159.542 33.0133 160.975 33.7133 162.742 33.7133C164.642 33.7133 166.108 33.0467 167.142 31.7133C168.175 30.3467 168.692 28.3633 168.692 25.7633V25.6633C168.692 23.1967 168.142 21.2633 167.042 19.8633C165.975 18.43 164.592 17.7133 162.892 17.7133C161.058 17.7133 159.575 18.3967 158.442 19.7633C157.342 21.13 156.792 23.03 156.792 25.4633ZM162.992 38.7133C158.925 38.7133 155.792 37.53 153.592 35.1633C151.392 32.7633 150.292 29.33 150.292 24.8633V14.8633C150.292 10.0967 151.542 6.63 154.042 4.46333C156.542 2.29667 160.525 1.21333 165.992 1.21333C167.925 1.21333 169.625 1.14667 171.092 1.01333C171.758 0.946666 172.325 1.13 172.792 1.56333C173.292 1.99667 173.542 2.53 173.542 3.16333C173.542 3.86333 173.308 4.48 172.842 5.01333C172.408 5.54667 171.842 5.84667 171.142 5.91333C169.708 6.04667 168.042 6.11333 166.142 6.11333C162.508 6.11333 160.025 6.73 158.692 7.96333C157.392 9.16333 156.742 11.4133 156.742 14.7133V16.5633C156.808 16.5633 156.842 16.53 156.842 16.4633C158.675 13.9633 161.308 12.7133 164.742 12.7133C167.675 12.7133 170.108 13.8967 172.042 16.2633C174.008 18.5967 174.992 21.7467 174.992 25.7133C174.992 29.88 173.942 33.0967 171.842 35.3633C169.742 37.5967 166.792 38.7133 162.992 38.7133Z" stroke="white" stroke-width="2" mask="url(#path-1-outside-1)"/>
<path d="M184.007 38.2133C183.24 38.2133 182.574 37.93 182.007 37.3633C181.44 36.7967 181.157 36.13 181.157 35.3633V15.0633C181.157 14.2967 181.44 13.63 182.007 13.0633C182.574 12.4967 183.24 12.2133 184.007 12.2133H184.957C185.724 12.2133 186.39 12.4967 186.957 13.0633C187.524 13.63 187.807 14.2967 187.807 15.0633V29.1133L187.857 29.1633L187.907 29.1133L195.957 14.6633C196.89 13.03 198.307 12.2133 200.207 12.2133H201.307C202.074 12.2133 202.74 12.4967 203.307 13.0633C203.874 13.63 204.157 14.2967 204.157 15.0633V35.3633C204.157 36.13 203.874 36.7967 203.307 37.3633C202.74 37.93 202.074 38.2133 201.307 38.2133H200.357C199.59 38.2133 198.924 37.93 198.357 37.3633C197.79 36.7967 197.507 36.13 197.507 35.3633V21.3133L197.457 21.2633L197.407 21.3133L189.357 35.7633C188.424 37.3967 187.007 38.2133 185.107 38.2133H184.007Z" stroke="white" stroke-width="2" mask="url(#path-1-outside-1)"/>
</svg>
