<svg width="641" height="327" viewBox="0 0 641 327" fill="none" xmlns="http://www.w3.org/2000/svg">
<path d="M803.21 -170.793L206.06 -180.536C206.06 -180.536 41.3379 149.572 184.446 200.069C224.23 214.107 254.771 219.296 281.295 218.008C322.078 216.026 355.585 206.261 396.661 194.73C424.962 186.786 455.963 174.696 499.931 175.414C649.219 177.849 766.044 325.939 766.044 325.939L803.21 -170.793Z" fill="url(#paint0_linear)"/>
<path d="M803.882 -211.966L206.731 -221.709C206.731 -221.709 -110.88 -36.7894 87.1358 112.091C169.758 174.211 229.249 192.585 281.702 193.009C354.961 193.601 414.224 159.239 501.221 160.659C650.509 163.094 783.173 269.097 783.173 269.097L803.882 -211.966Z" fill="url(#paint1_linear)"/>
<path d="M804.512 -250.624L207.362 -260.366C207.362 -260.366 -118.308 -30.4254 82.6833 97.8934C167.777 152.22 228.706 169.923 282.05 171.641C354.706 173.982 412.844 141.886 498.928 143.29C574.943 144.53 647.492 163.592 715.322 186.951C736.3 194.175 776.87 210.426 776.87 210.426L804.512 -250.624Z" fill="url(#paint2_linear)"/>
<defs>
<linearGradient id="paint0_linear" x1="123.532" y1="482.593" x2="131.358" y2="2.91748" gradientUnits="userSpaceOnUse">
<stop stop-color="#B51632"/>
<stop offset="0.947917" stop-color="#E87261"/>
</linearGradient>
<linearGradient id="paint1_linear" x1="18.0462" y1="418.394" x2="25.6216" y2="-45.9093" gradientUnits="userSpaceOnUse">
<stop stop-color="#B51632"/>
<stop offset="0.947917" stop-color="#E87261"/>
</linearGradient>
<linearGradient id="paint2_linear" x1="13.9713" y1="353.071" x2="21.2336" y2="-92.0382" gradientUnits="userSpaceOnUse">
<stop stop-color="#AF2507"/>
<stop offset="1" stop-color="#F14008"/>
</linearGradient>
</defs>
</svg>
