<svg width="66" height="62" viewBox="0 0 66 62" fill="none" xmlns="http://www.w3.org/2000/svg">
<path d="M59.839 59.9998C59.839 59.9998 59.839 43.9271 51.8792 39.641L38.97 33.2119" stroke="#CB1878" stroke-width="3" stroke-miterlimit="10" stroke-linecap="round" stroke-linejoin="round"/>
<path d="M6.16162 59.9998C6.16162 59.9998 6.16162 43.9271 14.1214 39.641L27.0307 33.2119" stroke="#CB1878" stroke-width="3" stroke-miterlimit="10" stroke-linecap="round" stroke-linejoin="round"/>
<path d="M42.9247 35.3545L43.9196 43.9266C37.465 42.2173 34.9648 37.4975 34.9648 37.4975" stroke="#CB1878" stroke-width="3" stroke-miterlimit="10" stroke-linecap="round" stroke-linejoin="round"/>
<path d="M23.0506 35.3545L22.0557 43.9266C28.5103 42.2173 31.0105 37.4975 31.0105 37.4975" stroke="#CB1878" stroke-width="3" stroke-miterlimit="10" stroke-linecap="round" stroke-linejoin="round"/>
<path d="M34.9905 37.4971C34.9905 37.4971 37.3886 41.3494 34.9905 43.9262C34.9905 43.9262 36.9804 56.5802 36.9804 59.9989" stroke="#CB1878" stroke-width="3" stroke-miterlimit="10" stroke-linecap="round" stroke-linejoin="round"/>
<path d="M29.0205 59.9989C29.0205 56.5802 31.0105 43.9262 31.0105 43.9262C28.6123 41.3494 31.0105 37.4971 31.0105 37.4971" stroke="#CB1878" stroke-width="3" stroke-miterlimit="10" stroke-linecap="round" stroke-linejoin="round"/>
<path d="M36.9801 29.9979C42.5418 27.4212 43.2306 21.9616 43.8429 16.604C44.1491 13.7211 44.2511 10.6086 42.95 7.92983C41.7509 5.45514 39.5824 3.74582 37.1842 2.90392C35.8831 2.36816 34.5055 2.16406 33.0002 2.16406C31.495 2.16406 30.1173 2.36816 28.8162 2.90392C26.4436 3.74582 24.2495 5.45514 23.0504 7.92983C21.7493 10.6086 21.8514 13.7211 22.1575 16.604C22.7443 21.9616 23.3566 27.4212 29.0203 29.9979" stroke="#CB1878" stroke-width="3" stroke-miterlimit="10" stroke-linecap="round" stroke-linejoin="round"/>
<path d="M38.9446 28.9268V31.0698C38.9446 34.616 36.2658 37.4989 32.9748 37.4989C29.6837 37.4989 27.0049 34.616 27.0049 31.0698V28.9268" stroke="#CB1878" stroke-width="3" stroke-miterlimit="10" stroke-linecap="round" stroke-linejoin="round"/>
<path d="M18.0755 32.1409C15.0906 32.1409 13.1006 31.0693 13.1006 31.0693L6.16131 34.2839C2.48754 36.3249 2.1814 41.7845 2.1814 41.7845V43.9275" stroke="#CB1878" stroke-width="3" stroke-miterlimit="10" stroke-linecap="round" stroke-linejoin="round"/>
<path d="M18.0758 11.7812C17.2849 11.7812 16.392 11.8833 15.7031 12.215C14.3 12.7507 13.0244 13.7202 12.31 15.0978C11.5191 16.6031 11.6212 18.4144 11.8253 20.1238C12.1314 23.2363 12.1314 24.6139 15.1164 26.7569" stroke="#CB1878" stroke-width="3" stroke-miterlimit="10" stroke-linecap="round" stroke-linejoin="round"/>
<path d="M47.8992 32.1409C50.8841 32.1409 52.8741 31.0693 52.8741 31.0693L59.8389 34.2839C63.5127 36.3249 63.8188 41.7845 63.8188 41.7845V43.9275" stroke="#CB1878" stroke-width="3" stroke-miterlimit="10" stroke-linecap="round" stroke-linejoin="round"/>
<path d="M50.8841 26.7843C53.869 24.6413 53.869 23.2381 54.1752 20.1511C54.3793 18.4418 54.4813 16.6304 53.6905 15.1252C53.0016 13.722 51.7005 12.7781 50.3228 12.2423C49.634 11.9106 48.7411 11.8086 47.9502 11.8086" stroke="#CB1878" stroke-width="3" stroke-miterlimit="10" stroke-linecap="round" stroke-linejoin="round"/>
</svg>
