<svg width="29" height="25" viewBox="0 0 29 25" fill="none" xmlns="http://www.w3.org/2000/svg">
<path d="M20.6599 23.0258V20.5937C20.6599 17.9073 18.4822 15.7295 15.7957 15.7295H6.06733C3.3809 15.7295 1.20313 17.9073 1.20312 20.5937V23.0258" stroke="#CB1878" stroke-width="2" stroke-linecap="round" stroke-linejoin="round"/>
<path fill-rule="evenodd" clip-rule="evenodd" d="M10.9316 10.8651C13.618 10.8651 15.7958 8.68735 15.7958 6.00092C15.7958 3.3145 13.618 1.13672 10.9316 1.13672C8.24516 1.13672 6.06738 3.3145 6.06738 6.00092C6.06738 8.68735 8.24516 10.8651 10.9316 10.8651Z" stroke="#CB1878" stroke-width="2" stroke-linecap="round" stroke-linejoin="round"/>
<path d="M27.9563 23.0259V20.5938C27.9546 18.3771 26.4544 16.4419 24.3081 15.8877" stroke="#CB1878" stroke-width="2" stroke-linecap="round" stroke-linejoin="round"/>
<path d="M19.4438 1.29492C21.5962 1.846 23.1015 3.78538 23.1015 6.00712C23.1015 8.22885 21.5962 10.1682 19.4438 10.7193" stroke="#CB1878" stroke-width="2" stroke-linecap="round" stroke-linejoin="round"/>
</svg>
