<svg width="41" height="40" viewBox="0 0 41 40" fill="none" xmlns="http://www.w3.org/2000/svg">
<rect x="1.03196" y="1" width="38" height="38" rx="19" stroke="#FF0000" stroke-width="2"/>
<path d="M16.3134 11.3H23.7505C26.4968 11.3 28.7319 13.5352 28.732 16.2815V23.7186C28.732 26.4649 26.4968 28.7 23.7505 28.7H16.3134C13.5671 28.7 11.332 26.4649 11.332 23.7186V16.2815C11.332 13.5352 13.5671 11.3 16.3134 11.3ZM23.7505 27.849C26.0316 27.849 27.8809 25.9997 27.8809 23.7186V16.2815C27.8809 14.0003 26.0316 12.1511 23.7505 12.1511H16.3134C14.0323 12.1511 12.183 14.0003 12.183 16.2815V23.7186C12.183 25.9997 14.0323 27.849 16.3134 27.849H23.7505Z" fill="white"/>
<path d="M16.3134 11.3H23.7505C26.4968 11.3 28.7319 13.5352 28.732 16.2815V23.7186C28.732 26.4649 26.4968 28.7 23.7505 28.7H16.3134C13.5671 28.7 11.332 26.4649 11.332 23.7186V16.2815C11.332 13.5352 13.5671 11.3 16.3134 11.3ZM23.7505 27.849C26.0316 27.849 27.8809 25.9997 27.8809 23.7186V16.2815C27.8809 14.0003 26.0316 12.1511 23.7505 12.1511H16.3134C14.0323 12.1511 12.183 14.0003 12.183 16.2815V23.7186C12.183 25.9997 14.0323 27.849 16.3134 27.849H23.7505Z" fill="black"/>
<path d="M16.3134 11.3H23.7505C26.4968 11.3 28.7319 13.5352 28.732 16.2815V23.7186C28.732 26.4649 26.4968 28.7 23.7505 28.7H16.3134C13.5671 28.7 11.332 26.4649 11.332 23.7186V16.2815C11.332 13.5352 13.5671 11.3 16.3134 11.3ZM23.7505 27.849C26.0316 27.849 27.8809 25.9997 27.8809 23.7186V16.2815C27.8809 14.0003 26.0316 12.1511 23.7505 12.1511H16.3134C14.0323 12.1511 12.183 14.0003 12.183 16.2815V23.7186C12.183 25.9997 14.0323 27.849 16.3134 27.849H23.7505Z" fill="#FF0000"/>
<path d="M16.3134 11.3H23.7505C26.4968 11.3 28.7319 13.5352 28.732 16.2815V23.7186C28.732 26.4649 26.4968 28.7 23.7505 28.7H16.3134C13.5671 28.7 11.332 26.4649 11.332 23.7186V16.2815C11.332 13.5352 13.5671 11.3 16.3134 11.3ZM23.7505 27.849C26.0316 27.849 27.8809 25.9997 27.8809 23.7186V16.2815C27.8809 14.0003 26.0316 12.1511 23.7505 12.1511H16.3134C14.0323 12.1511 12.183 14.0003 12.183 16.2815V23.7186C12.183 25.9997 14.0323 27.849 16.3134 27.849H23.7505Z" stroke="#FF0000"/>
<path d="M15.7735 20.0001C15.7735 17.6522 17.6845 15.7412 20.0324 15.7412C22.3804 15.7412 24.2913 17.6522 24.2913 20.0001C24.2913 22.348 22.3803 24.259 20.0324 24.259C17.6845 24.259 15.7735 22.348 15.7735 20.0001ZM16.6246 20.0001C16.6246 21.8822 18.1503 23.408 20.0324 23.408C21.9145 23.408 23.4403 21.8822 23.4403 20.0001C23.4403 18.118 21.9146 16.5923 20.0324 16.5923C18.1503 16.5923 16.6246 18.118 16.6246 20.0001Z" fill="white"/>
<path d="M15.7735 20.0001C15.7735 17.6522 17.6845 15.7412 20.0324 15.7412C22.3804 15.7412 24.2913 17.6522 24.2913 20.0001C24.2913 22.348 22.3803 24.259 20.0324 24.259C17.6845 24.259 15.7735 22.348 15.7735 20.0001ZM16.6246 20.0001C16.6246 21.8822 18.1503 23.408 20.0324 23.408C21.9145 23.408 23.4403 21.8822 23.4403 20.0001C23.4403 18.118 21.9146 16.5923 20.0324 16.5923C18.1503 16.5923 16.6246 18.118 16.6246 20.0001Z" fill="black"/>
<path d="M15.7735 20.0001C15.7735 17.6522 17.6845 15.7412 20.0324 15.7412C22.3804 15.7412 24.2913 17.6522 24.2913 20.0001C24.2913 22.348 22.3803 24.259 20.0324 24.259C17.6845 24.259 15.7735 22.348 15.7735 20.0001ZM16.6246 20.0001C16.6246 21.8822 18.1503 23.408 20.0324 23.408C21.9145 23.408 23.4403 21.8822 23.4403 20.0001C23.4403 18.118 21.9146 16.5923 20.0324 16.5923C18.1503 16.5923 16.6246 18.118 16.6246 20.0001Z" fill="#FF0000"/>
<path d="M15.7735 20.0001C15.7735 17.6522 17.6845 15.7412 20.0324 15.7412C22.3804 15.7412 24.2913 17.6522 24.2913 20.0001C24.2913 22.348 22.3803 24.259 20.0324 24.259C17.6845 24.259 15.7735 22.348 15.7735 20.0001ZM16.6246 20.0001C16.6246 21.8822 18.1503 23.408 20.0324 23.408C21.9145 23.408 23.4403 21.8822 23.4403 20.0001C23.4403 18.118 21.9146 16.5923 20.0324 16.5923C18.1503 16.5923 16.6246 18.118 16.6246 20.0001Z" stroke="#FF0000"/>
<path d="M24.8006 16.4169C25.4304 16.4169 25.9409 15.9063 25.9409 15.2766C25.9409 14.6468 25.4304 14.1362 24.8006 14.1362C24.1708 14.1362 23.6603 14.6468 23.6603 15.2766C23.6603 15.9063 24.1708 16.4169 24.8006 16.4169Z" fill="white"/>
<path d="M24.8006 16.4169C25.4304 16.4169 25.9409 15.9063 25.9409 15.2766C25.9409 14.6468 25.4304 14.1362 24.8006 14.1362C24.1708 14.1362 23.6603 14.6468 23.6603 15.2766C23.6603 15.9063 24.1708 16.4169 24.8006 16.4169Z" fill="black"/>
</svg>
