<svg width="41" height="40" viewBox="0 0 41 40" fill="none" xmlns="http://www.w3.org/2000/svg">
<rect x="1.06392" y="1" width="38" height="38" rx="19" stroke="#FF0000" stroke-width="2"/>
<path d="M16.7949 20.1678C16.7946 20.1676 16.7943 20.1674 16.7939 20.1671L17.0787 19.7562L16.7958 20.1684C16.7955 20.1682 16.7952 20.168 16.7949 20.1678ZM16.7949 20.1678C16.9921 20.3042 17.2773 20.4284 17.5928 20.335C17.9068 20.2419 18.0795 19.9836 18.1726 19.7617M16.7949 20.1678L18.1726 19.7617M18.1726 19.7617C18.2872 19.4901 18.3294 19.2121 18.3509 18.9766L18.351 18.9766L18.3513 18.9727C18.4154 18.2055 18.4275 17.418 18.3082 16.6238C18.2627 16.3179 18.1484 16.0279 17.9375 15.7948C17.9072 15.7613 17.8756 15.7297 17.8427 15.7H20.4079C20.4611 15.7129 20.4874 15.7248 20.4986 15.7313C20.5019 15.7376 20.5084 15.752 20.5164 15.7792C20.5284 15.8202 20.5401 15.8771 20.5521 15.9604L20.5553 19.0236C20.5534 19.174 20.5861 19.4024 20.6657 19.6185C20.7399 19.8195 20.908 20.1536 21.2726 20.2882L21.2822 20.2917L21.292 20.2949C21.5915 20.3917 21.8502 20.3104 22.0352 20.1882C22.1735 20.0968 22.2883 19.9683 22.3487 19.9008C22.3546 19.8941 22.3601 19.888 22.365 19.8826C23.0776 19.1193 23.5752 18.2288 24.0047 17.3446C24.2012 16.9442 24.3682 16.5303 24.5256 16.1329L24.5266 16.1303C24.5442 16.0851 24.5596 16.0585 24.5699 16.0439C24.5749 16.0368 24.5785 16.0328 24.5804 16.0308L24.5824 16.0289L24.5827 16.0286L24.5828 16.0286L24.5828 16.0286L24.5828 16.0286L24.5836 16.0282C24.5846 16.0277 24.5877 16.0264 24.5937 16.0248C24.606 16.0216 24.6319 16.017 24.6773 16.018L24.6773 16.018L24.6855 16.0181L27.3399 16.028H27.3417C27.4271 16.028 27.4642 16.0291 27.495 16.0343L27.578 15.5413M18.1726 19.7617L27.3417 15.528C27.4205 15.528 27.4992 15.528 27.578 15.5413M27.578 15.5413C28.0275 15.6175 28.1489 15.813 28.0111 16.257M27.578 15.5413L27.4944 16.0342C27.5159 16.0379 27.5348 16.0416 27.5513 16.0454M28.0111 16.257L27.5345 16.1057C27.5343 16.1062 27.5342 16.1067 27.534 16.1072M28.0111 16.257L27.5335 16.1088C27.5337 16.1083 27.5339 16.1078 27.534 16.1072M28.0111 16.257L27.534 16.1072M27.534 16.1072C27.5412 16.0839 27.5469 16.0634 27.5513 16.0454M27.534 16.1072C27.3433 16.7069 26.9749 17.2196 26.551 17.8095L26.5453 17.8175L26.5445 17.8185C26.3393 18.1057 26.1265 18.389 25.9094 18.678L25.8711 18.729C25.6421 19.0338 25.4091 19.345 25.1844 19.6634C24.9716 19.964 24.7816 20.308 24.8196 20.704C24.8574 21.0973 25.1071 21.4012 25.3698 21.6596L27.534 16.1072ZM27.5513 16.0454C27.5663 16.0488 27.5793 16.0522 27.5906 16.0555C27.6143 16.0624 27.6272 16.0681 27.6322 16.0706C27.6335 16.0712 27.6341 16.0716 27.6341 16.0716C27.634 16.0716 27.6295 16.0689 27.6223 16.0627C27.6118 16.0537 27.599 16.0399 27.5876 16.0211C27.5762 16.0024 27.57 15.985 27.567 15.9723C27.565 15.9643 27.5647 15.9598 27.5647 15.9596C27.5647 15.9596 27.5648 15.9605 27.5648 15.9626C27.5647 15.9693 27.5638 15.9844 27.559 16.0098C27.557 16.0204 27.5545 16.0322 27.5513 16.0454ZM20.5056 15.7365C20.5053 15.7366 20.5034 15.7354 20.5007 15.7325C20.5045 15.7349 20.5059 15.7364 20.5056 15.7365Z" fill="#436EAB"/>
<path d="M16.7949 20.1678C16.7946 20.1676 16.7943 20.1674 16.7939 20.1671L17.0787 19.7562L16.7958 20.1684C16.7955 20.1682 16.7952 20.168 16.7949 20.1678ZM16.7949 20.1678C16.9921 20.3042 17.2773 20.4284 17.5928 20.335C17.9068 20.2419 18.0795 19.9836 18.1726 19.7617M16.7949 20.1678L18.1726 19.7617M18.1726 19.7617C18.2872 19.4901 18.3294 19.2121 18.3509 18.9766L18.351 18.9766L18.3513 18.9727C18.4154 18.2055 18.4275 17.418 18.3082 16.6238C18.2627 16.3179 18.1484 16.0279 17.9375 15.7948C17.9072 15.7613 17.8756 15.7297 17.8427 15.7H20.4079C20.4611 15.7129 20.4874 15.7248 20.4986 15.7313C20.5019 15.7376 20.5084 15.752 20.5164 15.7792C20.5284 15.8202 20.5401 15.8771 20.5521 15.9604L20.5553 19.0236C20.5534 19.174 20.5861 19.4024 20.6657 19.6185C20.7399 19.8195 20.908 20.1536 21.2726 20.2882L21.2822 20.2917L21.292 20.2949C21.5915 20.3917 21.8502 20.3104 22.0352 20.1882C22.1735 20.0968 22.2883 19.9683 22.3487 19.9008C22.3546 19.8941 22.3601 19.888 22.365 19.8826C23.0776 19.1193 23.5752 18.2288 24.0047 17.3446C24.2012 16.9442 24.3682 16.5303 24.5256 16.1329L24.5266 16.1303C24.5442 16.0851 24.5596 16.0585 24.5699 16.0439C24.5749 16.0368 24.5785 16.0328 24.5804 16.0308L24.5824 16.0289L24.5827 16.0286L24.5828 16.0286L24.5828 16.0286L24.5828 16.0286L24.5836 16.0282C24.5846 16.0277 24.5877 16.0264 24.5937 16.0248C24.606 16.0216 24.6319 16.017 24.6773 16.018L24.6773 16.018L24.6855 16.0181L27.3399 16.028H27.3417C27.4271 16.028 27.4642 16.0291 27.495 16.0343L27.578 15.5413M18.1726 19.7617L27.3417 15.528C27.4205 15.528 27.4992 15.528 27.578 15.5413M27.578 15.5413C28.0275 15.6175 28.1489 15.813 28.0111 16.257M27.578 15.5413L27.4944 16.0342C27.5159 16.0379 27.5348 16.0416 27.5513 16.0454M28.0111 16.257L27.5345 16.1057C27.5343 16.1062 27.5342 16.1067 27.534 16.1072M28.0111 16.257L27.5335 16.1088C27.5337 16.1083 27.5339 16.1078 27.534 16.1072M28.0111 16.257L27.534 16.1072M27.534 16.1072C27.5412 16.0839 27.5469 16.0634 27.5513 16.0454M27.534 16.1072C27.3433 16.7069 26.9749 17.2196 26.551 17.8095L26.5453 17.8175L26.5445 17.8185C26.3393 18.1057 26.1265 18.389 25.9094 18.678L25.8711 18.729C25.6421 19.0338 25.4091 19.345 25.1844 19.6634C24.9716 19.964 24.7816 20.308 24.8196 20.704C24.8574 21.0973 25.1071 21.4012 25.3698 21.6596L27.534 16.1072ZM27.5513 16.0454C27.5663 16.0488 27.5793 16.0522 27.5906 16.0555C27.6143 16.0624 27.6272 16.0681 27.6322 16.0706C27.6335 16.0712 27.6341 16.0716 27.6341 16.0716C27.634 16.0716 27.6295 16.0689 27.6223 16.0627C27.6118 16.0537 27.599 16.0399 27.5876 16.0211C27.5762 16.0024 27.57 15.985 27.567 15.9723C27.565 15.9643 27.5647 15.9598 27.5647 15.9596C27.5647 15.9596 27.5648 15.9605 27.5648 15.9626C27.5647 15.9693 27.5638 15.9844 27.559 16.0098C27.557 16.0204 27.5545 16.0322 27.5513 16.0454ZM20.5056 15.7365C20.5053 15.7366 20.5034 15.7354 20.5007 15.7325C20.5045 15.7349 20.5059 15.7364 20.5056 15.7365Z" fill="black"/>
<path d="M16.7949 20.1678C16.7946 20.1676 16.7943 20.1674 16.7939 20.1671L17.0787 19.7562L16.7958 20.1684C16.7955 20.1682 16.7952 20.168 16.7949 20.1678ZM16.7949 20.1678C16.9921 20.3042 17.2773 20.4284 17.5928 20.335C17.9068 20.2419 18.0795 19.9836 18.1726 19.7617M16.7949 20.1678L18.1726 19.7617M18.1726 19.7617C18.2872 19.4901 18.3294 19.2121 18.3509 18.9766L18.351 18.9766L18.3513 18.9727C18.4154 18.2055 18.4275 17.418 18.3082 16.6238C18.2627 16.3179 18.1484 16.0279 17.9375 15.7948C17.9072 15.7613 17.8756 15.7297 17.8427 15.7H20.4079C20.4611 15.7129 20.4874 15.7248 20.4986 15.7313C20.5019 15.7376 20.5084 15.752 20.5164 15.7792C20.5284 15.8202 20.5401 15.8771 20.5521 15.9604L20.5553 19.0236C20.5534 19.174 20.5861 19.4024 20.6657 19.6185C20.7399 19.8195 20.908 20.1536 21.2726 20.2882L21.2822 20.2917L21.292 20.2949C21.5915 20.3917 21.8502 20.3104 22.0352 20.1882C22.1735 20.0968 22.2883 19.9683 22.3487 19.9008C22.3546 19.8941 22.3601 19.888 22.365 19.8826C23.0776 19.1193 23.5752 18.2288 24.0047 17.3446C24.2012 16.9442 24.3682 16.5303 24.5256 16.1329L24.5266 16.1303C24.5442 16.0851 24.5596 16.0585 24.5699 16.0439C24.5749 16.0368 24.5785 16.0328 24.5804 16.0308L24.5824 16.0289L24.5827 16.0286L24.5828 16.0286L24.5828 16.0286L24.5828 16.0286L24.5836 16.0282C24.5846 16.0277 24.5877 16.0264 24.5937 16.0248C24.606 16.0216 24.6319 16.017 24.6773 16.018L24.6773 16.018L24.6855 16.0181L27.3399 16.028H27.3417C27.4271 16.028 27.4642 16.0291 27.495 16.0343L27.578 15.5413M18.1726 19.7617L27.3417 15.528C27.4205 15.528 27.4992 15.528 27.578 15.5413M27.578 15.5413C28.0275 15.6175 28.1489 15.813 28.0111 16.257M27.578 15.5413L27.4944 16.0342C27.5159 16.0379 27.5348 16.0416 27.5513 16.0454M28.0111 16.257L27.5345 16.1057C27.5343 16.1062 27.5342 16.1067 27.534 16.1072M28.0111 16.257L27.5335 16.1088C27.5337 16.1083 27.5339 16.1078 27.534 16.1072M28.0111 16.257L27.534 16.1072M27.534 16.1072C27.5412 16.0839 27.5469 16.0634 27.5513 16.0454M27.534 16.1072C27.3433 16.7069 26.9749 17.2196 26.551 17.8095L26.5453 17.8175L26.5445 17.8185C26.3393 18.1057 26.1265 18.389 25.9094 18.678L25.8711 18.729C25.6421 19.0338 25.4091 19.345 25.1844 19.6634C24.9716 19.964 24.7816 20.308 24.8196 20.704C24.8574 21.0973 25.1071 21.4012 25.3698 21.6596L27.534 16.1072ZM27.5513 16.0454C27.5663 16.0488 27.5793 16.0522 27.5906 16.0555C27.6143 16.0624 27.6272 16.0681 27.6322 16.0706C27.6335 16.0712 27.6341 16.0716 27.6341 16.0716C27.634 16.0716 27.6295 16.0689 27.6223 16.0627C27.6118 16.0537 27.599 16.0399 27.5876 16.0211C27.5762 16.0024 27.57 15.985 27.567 15.9723C27.565 15.9643 27.5647 15.9598 27.5647 15.9596C27.5647 15.9596 27.5648 15.9605 27.5648 15.9626C27.5647 15.9693 27.5638 15.9844 27.559 16.0098C27.557 16.0204 27.5545 16.0322 27.5513 16.0454ZM20.5056 15.7365C20.5053 15.7366 20.5034 15.7354 20.5007 15.7325C20.5045 15.7349 20.5059 15.7364 20.5056 15.7365Z" fill="#FF0000"/>
<path d="M16.7949 20.1678C16.7946 20.1676 16.7943 20.1674 16.7939 20.1671L17.0787 19.7562L16.7958 20.1684C16.7955 20.1682 16.7952 20.168 16.7949 20.1678ZM16.7949 20.1678C16.9921 20.3042 17.2773 20.4284 17.5928 20.335C17.9068 20.2419 18.0795 19.9836 18.1726 19.7617M16.7949 20.1678L18.1726 19.7617M18.1726 19.7617C18.2872 19.4901 18.3294 19.2121 18.3509 18.9766L18.351 18.9766L18.3513 18.9727C18.4154 18.2055 18.4275 17.418 18.3082 16.6238C18.2627 16.3179 18.1484 16.0279 17.9375 15.7948C17.9072 15.7613 17.8756 15.7297 17.8427 15.7H20.4079C20.4611 15.7129 20.4874 15.7248 20.4986 15.7313C20.5019 15.7376 20.5084 15.752 20.5164 15.7792C20.5284 15.8202 20.5401 15.8771 20.5521 15.9604L20.5553 19.0236C20.5534 19.174 20.5861 19.4024 20.6657 19.6185C20.7399 19.8195 20.908 20.1536 21.2726 20.2882L21.2822 20.2917L21.292 20.2949C21.5915 20.3917 21.8502 20.3104 22.0352 20.1882C22.1735 20.0968 22.2883 19.9683 22.3487 19.9008C22.3546 19.8941 22.3601 19.888 22.365 19.8826C23.0776 19.1193 23.5752 18.2288 24.0047 17.3446C24.2012 16.9442 24.3682 16.5303 24.5256 16.1329L24.5266 16.1303C24.5442 16.0851 24.5596 16.0585 24.5699 16.0439C24.5749 16.0368 24.5785 16.0328 24.5804 16.0308L24.5824 16.0289L24.5827 16.0286L24.5828 16.0286L24.5828 16.0286L24.5828 16.0286L24.5836 16.0282C24.5846 16.0277 24.5877 16.0264 24.5937 16.0248C24.606 16.0216 24.6319 16.017 24.6773 16.018L24.6773 16.018L24.6855 16.0181L27.3399 16.028H27.3417C27.4271 16.028 27.4642 16.0291 27.495 16.0343L27.578 15.5413M18.1726 19.7617L27.3417 15.528C27.4205 15.528 27.4992 15.528 27.578 15.5413M27.578 15.5413C28.0275 15.6175 28.1489 15.813 28.0111 16.257M27.578 15.5413L27.4944 16.0342C27.5159 16.0379 27.5348 16.0416 27.5513 16.0454M28.0111 16.257L27.5345 16.1057C27.5343 16.1062 27.5342 16.1067 27.534 16.1072M28.0111 16.257L27.5335 16.1088C27.5337 16.1083 27.5339 16.1078 27.534 16.1072M28.0111 16.257L27.534 16.1072M27.534 16.1072C27.5412 16.0839 27.5469 16.0634 27.5513 16.0454M27.534 16.1072C27.3433 16.7069 26.9749 17.2196 26.551 17.8095L26.5453 17.8175L26.5445 17.8185C26.3393 18.1057 26.1265 18.389 25.9094 18.678L25.8711 18.729C25.6421 19.0338 25.4091 19.345 25.1844 19.6634C24.9716 19.964 24.7816 20.308 24.8196 20.704C24.8574 21.0973 25.1071 21.4012 25.3698 21.6596L27.534 16.1072ZM27.5513 16.0454C27.5663 16.0488 27.5793 16.0522 27.5906 16.0555C27.6143 16.0624 27.6272 16.0681 27.6322 16.0706C27.6335 16.0712 27.6341 16.0716 27.6341 16.0716C27.634 16.0716 27.6295 16.0689 27.6223 16.0627C27.6118 16.0537 27.599 16.0399 27.5876 16.0211C27.5762 16.0024 27.57 15.985 27.567 15.9723C27.565 15.9643 27.5647 15.9598 27.5647 15.9596C27.5647 15.9596 27.5648 15.9605 27.5648 15.9626C27.5647 15.9693 27.5638 15.9844 27.559 16.0098C27.557 16.0204 27.5545 16.0322 27.5513 16.0454ZM20.5056 15.7365C20.5053 15.7366 20.5034 15.7354 20.5007 15.7325C20.5045 15.7349 20.5059 15.7364 20.5056 15.7365Z" stroke="#FF0000"/>
</svg>
