<svg width="40" height="40" viewBox="0 0 40 40" fill="none" xmlns="http://www.w3.org/2000/svg">
<rect x="1" y="1" width="38" height="38" rx="19" stroke="#FF0000" stroke-width="2"/>
<path d="M18.2917 20.4696V19.9696H17.7917H16.5V18.1441H17.8696H18.3696V17.6441V15.8898V15.8458L18.3619 15.8025C18.3406 15.6825 18.2235 14.8033 19.0254 14.0544C19.7726 13.3613 20.7371 13.3 21.0189 13.3C21.0302 13.3 21.0396 13.3004 21.0488 13.3008L21.0568 13.3013L21.067 13.3018L21.0674 13.3018C21.0731 13.3021 21.0882 13.3029 21.1051 13.3029H22.7V14.9653H22.6979H22.6948H22.6916H22.6884H22.6852H22.6819H22.6787H22.6755H22.6722H22.6689H22.6657H22.6624H22.6591H22.6558H22.6524H22.6491H22.6457H22.6424H22.639H22.6356H22.6323H22.6289H22.6254H22.622H22.6186H22.6152H22.6117H22.6083H22.6048H22.6013H22.5978H22.5943H22.5908H22.5873H22.5838H22.5802H22.5767H22.5732H22.5696H22.566H22.5625H22.5589H22.5553H22.5517H22.5481H22.5445H22.5409H22.5372H22.5336H22.53H22.5263H22.5227H22.519H22.5153H22.5116H22.508H22.5043H22.5006H22.4969H22.4932H22.4895H22.4857H22.482H22.4783H22.4746H22.4708H22.4671H22.4633H22.4596H22.4558H22.452H22.4483H22.4445H22.4407H22.4369H22.4331H22.4293H22.4255H22.4217H22.4179H22.4141H22.4103H22.4065H22.4027H22.3989H22.395H22.3912H22.3874H22.3836H22.3797H22.3759H22.372H22.3682H22.3644H22.3605H22.3567H22.3528H22.349H22.3451H22.3412H22.3374H22.3335H22.3297H22.3258H22.3219H22.3181H22.3142H22.3104H22.3065H22.3026H22.2988H22.2949H22.291H22.2872H22.2833H22.2794H22.2756H22.2717H22.2678H22.264H22.2601H22.2562H22.2524H22.2485H22.2447H22.2408H22.237H22.2331H22.2293H22.2254H22.2216H22.2177H22.2139H22.21H22.2062H22.2023H22.1985H22.1947H22.1908H22.187H22.1832H22.1794H22.1756H22.1717H22.1679H22.1641H22.1603H22.1565H22.1527H22.1489H22.1452H22.1414H22.1376H22.1338H22.1301H22.1263H22.1225H22.1188H22.115H22.1113H22.1075H22.1038H22.1001H22.0964H22.0926H22.0889H22.0852H22.0815H22.0778H22.0742H22.0705H22.0668H22.0631H22.0595H22.0558H22.0522H22.0485H22.0449H22.0413H22.0377H22.0341H22.0304H22.0269H22.0233H22.0197H22.0161H22.0126H22.009H22.0055H22.0019H21.9984H21.9949H21.9914H21.9879H21.9844H21.9809H21.9774H21.9739H21.9705H21.967H21.9636H21.9602H21.9568H21.9534H21.95H21.9466H21.9432H21.9398H21.9365H21.9331H21.9298H21.9265H21.9232H21.9199H21.9166H21.9133H21.9101H21.9068H21.9036H21.9003H21.8971H21.8939H21.8907H21.8875H21.8844H21.8812H21.8781H21.8749H21.8718H21.8687H21.8656H21.8625H21.8595H21.8564H21.8534H21.8504H21.8474H21.8444H21.8414H21.8384H21.8355H21.8325H21.8296H21.8267H21.8238H21.8209H21.818H21.8152H21.8124H21.8095H21.8067H21.8039H21.8012H21.7984H21.7957H21.7929H21.7902H21.7875H21.7849H21.7822H21.7795H21.7769H21.7743H21.7717H21.7691H21.7666H21.764H21.7615H21.759H21.7565H21.754H21.7516H21.7491H21.7467H21.7443H21.7419H21.7396H21.7372H21.7349H21.7326H21.7303H21.728H21.7257H21.7235H21.7213H21.7191H21.7169H21.7148H21.7126H21.7105H21.7084H21.7063H21.7043H21.7022H21.7002H21.6982H21.6962H21.6943H21.6923H21.6904H21.6885H21.6866H21.6848H21.683H21.6812H21.6794H21.6776H21.6759H21.6741H21.6724H21.6708H21.6691H21.6675H21.6658H21.6643H21.6627H21.6611H21.6596H21.6581H21.6567H21.6552H21.6538H21.6524H21.651H21.6496H21.6483H21.647H21.6457H21.6444H21.6432H21.642H21.6408H21.6396H21.6385H21.6374H21.6363H21.6352H21.6342H21.6331H21.6322H21.6312H21.6303H21.6293H21.6285H21.6276H21.6268H21.6259H21.6252H21.6244H21.6237H21.623H21.6223H21.6216H21.621H21.6204H21.6198H21.6193H21.6188H21.6183H21.6178H21.6174H21.617C21.308 14.9653 20.9842 15.0394 20.738 15.273C20.487 15.5112 20.402 15.8334 20.402 16.1456V17.6441V18.1441H20.902H22.6665L22.4549 20.0005H20.902H20.402V20.5005V26.7H18.2917V20.4696ZM22.9691 15.2319L22.9691 14.9653C22.9691 14.9653 22.9691 14.9653 22.9691 14.9653L22.9691 15.2319Z" fill="#385C8E"/>
<path d="M18.2917 20.4696V19.9696H17.7917H16.5V18.1441H17.8696H18.3696V17.6441V15.8898V15.8458L18.3619 15.8025C18.3406 15.6825 18.2235 14.8033 19.0254 14.0544C19.7726 13.3613 20.7371 13.3 21.0189 13.3C21.0302 13.3 21.0396 13.3004 21.0488 13.3008L21.0568 13.3013L21.067 13.3018L21.0674 13.3018C21.0731 13.3021 21.0882 13.3029 21.1051 13.3029H22.7V14.9653H22.6979H22.6948H22.6916H22.6884H22.6852H22.6819H22.6787H22.6755H22.6722H22.6689H22.6657H22.6624H22.6591H22.6558H22.6524H22.6491H22.6457H22.6424H22.639H22.6356H22.6323H22.6289H22.6254H22.622H22.6186H22.6152H22.6117H22.6083H22.6048H22.6013H22.5978H22.5943H22.5908H22.5873H22.5838H22.5802H22.5767H22.5732H22.5696H22.566H22.5625H22.5589H22.5553H22.5517H22.5481H22.5445H22.5409H22.5372H22.5336H22.53H22.5263H22.5227H22.519H22.5153H22.5116H22.508H22.5043H22.5006H22.4969H22.4932H22.4895H22.4857H22.482H22.4783H22.4746H22.4708H22.4671H22.4633H22.4596H22.4558H22.452H22.4483H22.4445H22.4407H22.4369H22.4331H22.4293H22.4255H22.4217H22.4179H22.4141H22.4103H22.4065H22.4027H22.3989H22.395H22.3912H22.3874H22.3836H22.3797H22.3759H22.372H22.3682H22.3644H22.3605H22.3567H22.3528H22.349H22.3451H22.3412H22.3374H22.3335H22.3297H22.3258H22.3219H22.3181H22.3142H22.3104H22.3065H22.3026H22.2988H22.2949H22.291H22.2872H22.2833H22.2794H22.2756H22.2717H22.2678H22.264H22.2601H22.2562H22.2524H22.2485H22.2447H22.2408H22.237H22.2331H22.2293H22.2254H22.2216H22.2177H22.2139H22.21H22.2062H22.2023H22.1985H22.1947H22.1908H22.187H22.1832H22.1794H22.1756H22.1717H22.1679H22.1641H22.1603H22.1565H22.1527H22.1489H22.1452H22.1414H22.1376H22.1338H22.1301H22.1263H22.1225H22.1188H22.115H22.1113H22.1075H22.1038H22.1001H22.0964H22.0926H22.0889H22.0852H22.0815H22.0778H22.0742H22.0705H22.0668H22.0631H22.0595H22.0558H22.0522H22.0485H22.0449H22.0413H22.0377H22.0341H22.0304H22.0269H22.0233H22.0197H22.0161H22.0126H22.009H22.0055H22.0019H21.9984H21.9949H21.9914H21.9879H21.9844H21.9809H21.9774H21.9739H21.9705H21.967H21.9636H21.9602H21.9568H21.9534H21.95H21.9466H21.9432H21.9398H21.9365H21.9331H21.9298H21.9265H21.9232H21.9199H21.9166H21.9133H21.9101H21.9068H21.9036H21.9003H21.8971H21.8939H21.8907H21.8875H21.8844H21.8812H21.8781H21.8749H21.8718H21.8687H21.8656H21.8625H21.8595H21.8564H21.8534H21.8504H21.8474H21.8444H21.8414H21.8384H21.8355H21.8325H21.8296H21.8267H21.8238H21.8209H21.818H21.8152H21.8124H21.8095H21.8067H21.8039H21.8012H21.7984H21.7957H21.7929H21.7902H21.7875H21.7849H21.7822H21.7795H21.7769H21.7743H21.7717H21.7691H21.7666H21.764H21.7615H21.759H21.7565H21.754H21.7516H21.7491H21.7467H21.7443H21.7419H21.7396H21.7372H21.7349H21.7326H21.7303H21.728H21.7257H21.7235H21.7213H21.7191H21.7169H21.7148H21.7126H21.7105H21.7084H21.7063H21.7043H21.7022H21.7002H21.6982H21.6962H21.6943H21.6923H21.6904H21.6885H21.6866H21.6848H21.683H21.6812H21.6794H21.6776H21.6759H21.6741H21.6724H21.6708H21.6691H21.6675H21.6658H21.6643H21.6627H21.6611H21.6596H21.6581H21.6567H21.6552H21.6538H21.6524H21.651H21.6496H21.6483H21.647H21.6457H21.6444H21.6432H21.642H21.6408H21.6396H21.6385H21.6374H21.6363H21.6352H21.6342H21.6331H21.6322H21.6312H21.6303H21.6293H21.6285H21.6276H21.6268H21.6259H21.6252H21.6244H21.6237H21.623H21.6223H21.6216H21.621H21.6204H21.6198H21.6193H21.6188H21.6183H21.6178H21.6174H21.617C21.308 14.9653 20.9842 15.0394 20.738 15.273C20.487 15.5112 20.402 15.8334 20.402 16.1456V17.6441V18.1441H20.902H22.6665L22.4549 20.0005H20.902H20.402V20.5005V26.7H18.2917V20.4696ZM22.9691 15.2319L22.9691 14.9653C22.9691 14.9653 22.9691 14.9653 22.9691 14.9653L22.9691 15.2319Z" fill="black"/>
<path d="M18.2917 20.4696V19.9696H17.7917H16.5V18.1441H17.8696H18.3696V17.6441V15.8898V15.8458L18.3619 15.8025C18.3406 15.6825 18.2235 14.8033 19.0254 14.0544C19.7726 13.3613 20.7371 13.3 21.0189 13.3C21.0302 13.3 21.0396 13.3004 21.0488 13.3008L21.0568 13.3013L21.067 13.3018L21.0674 13.3018C21.0731 13.3021 21.0882 13.3029 21.1051 13.3029H22.7V14.9653H22.6979H22.6948H22.6916H22.6884H22.6852H22.6819H22.6787H22.6755H22.6722H22.6689H22.6657H22.6624H22.6591H22.6558H22.6524H22.6491H22.6457H22.6424H22.639H22.6356H22.6323H22.6289H22.6254H22.622H22.6186H22.6152H22.6117H22.6083H22.6048H22.6013H22.5978H22.5943H22.5908H22.5873H22.5838H22.5802H22.5767H22.5732H22.5696H22.566H22.5625H22.5589H22.5553H22.5517H22.5481H22.5445H22.5409H22.5372H22.5336H22.53H22.5263H22.5227H22.519H22.5153H22.5116H22.508H22.5043H22.5006H22.4969H22.4932H22.4895H22.4857H22.482H22.4783H22.4746H22.4708H22.4671H22.4633H22.4596H22.4558H22.452H22.4483H22.4445H22.4407H22.4369H22.4331H22.4293H22.4255H22.4217H22.4179H22.4141H22.4103H22.4065H22.4027H22.3989H22.395H22.3912H22.3874H22.3836H22.3797H22.3759H22.372H22.3682H22.3644H22.3605H22.3567H22.3528H22.349H22.3451H22.3412H22.3374H22.3335H22.3297H22.3258H22.3219H22.3181H22.3142H22.3104H22.3065H22.3026H22.2988H22.2949H22.291H22.2872H22.2833H22.2794H22.2756H22.2717H22.2678H22.264H22.2601H22.2562H22.2524H22.2485H22.2447H22.2408H22.237H22.2331H22.2293H22.2254H22.2216H22.2177H22.2139H22.21H22.2062H22.2023H22.1985H22.1947H22.1908H22.187H22.1832H22.1794H22.1756H22.1717H22.1679H22.1641H22.1603H22.1565H22.1527H22.1489H22.1452H22.1414H22.1376H22.1338H22.1301H22.1263H22.1225H22.1188H22.115H22.1113H22.1075H22.1038H22.1001H22.0964H22.0926H22.0889H22.0852H22.0815H22.0778H22.0742H22.0705H22.0668H22.0631H22.0595H22.0558H22.0522H22.0485H22.0449H22.0413H22.0377H22.0341H22.0304H22.0269H22.0233H22.0197H22.0161H22.0126H22.009H22.0055H22.0019H21.9984H21.9949H21.9914H21.9879H21.9844H21.9809H21.9774H21.9739H21.9705H21.967H21.9636H21.9602H21.9568H21.9534H21.95H21.9466H21.9432H21.9398H21.9365H21.9331H21.9298H21.9265H21.9232H21.9199H21.9166H21.9133H21.9101H21.9068H21.9036H21.9003H21.8971H21.8939H21.8907H21.8875H21.8844H21.8812H21.8781H21.8749H21.8718H21.8687H21.8656H21.8625H21.8595H21.8564H21.8534H21.8504H21.8474H21.8444H21.8414H21.8384H21.8355H21.8325H21.8296H21.8267H21.8238H21.8209H21.818H21.8152H21.8124H21.8095H21.8067H21.8039H21.8012H21.7984H21.7957H21.7929H21.7902H21.7875H21.7849H21.7822H21.7795H21.7769H21.7743H21.7717H21.7691H21.7666H21.764H21.7615H21.759H21.7565H21.754H21.7516H21.7491H21.7467H21.7443H21.7419H21.7396H21.7372H21.7349H21.7326H21.7303H21.728H21.7257H21.7235H21.7213H21.7191H21.7169H21.7148H21.7126H21.7105H21.7084H21.7063H21.7043H21.7022H21.7002H21.6982H21.6962H21.6943H21.6923H21.6904H21.6885H21.6866H21.6848H21.683H21.6812H21.6794H21.6776H21.6759H21.6741H21.6724H21.6708H21.6691H21.6675H21.6658H21.6643H21.6627H21.6611H21.6596H21.6581H21.6567H21.6552H21.6538H21.6524H21.651H21.6496H21.6483H21.647H21.6457H21.6444H21.6432H21.642H21.6408H21.6396H21.6385H21.6374H21.6363H21.6352H21.6342H21.6331H21.6322H21.6312H21.6303H21.6293H21.6285H21.6276H21.6268H21.6259H21.6252H21.6244H21.6237H21.623H21.6223H21.6216H21.621H21.6204H21.6198H21.6193H21.6188H21.6183H21.6178H21.6174H21.617C21.308 14.9653 20.9842 15.0394 20.738 15.273C20.487 15.5112 20.402 15.8334 20.402 16.1456V17.6441V18.1441H20.902H22.6665L22.4549 20.0005H20.902H20.402V20.5005V26.7H18.2917V20.4696ZM22.9691 15.2319L22.9691 14.9653C22.9691 14.9653 22.9691 14.9653 22.9691 14.9653L22.9691 15.2319Z" fill="#FF0000"/>
<path d="M18.2917 20.4696V19.9696H17.7917H16.5V18.1441H17.8696H18.3696V17.6441V15.8898V15.8458L18.3619 15.8025C18.3406 15.6825 18.2235 14.8033 19.0254 14.0544C19.7726 13.3613 20.7371 13.3 21.0189 13.3C21.0302 13.3 21.0396 13.3004 21.0488 13.3008L21.0568 13.3013L21.067 13.3018L21.0674 13.3018C21.0731 13.3021 21.0882 13.3029 21.1051 13.3029H22.7V14.9653H22.6979H22.6948H22.6916H22.6884H22.6852H22.6819H22.6787H22.6755H22.6722H22.6689H22.6657H22.6624H22.6591H22.6558H22.6524H22.6491H22.6457H22.6424H22.639H22.6356H22.6323H22.6289H22.6254H22.622H22.6186H22.6152H22.6117H22.6083H22.6048H22.6013H22.5978H22.5943H22.5908H22.5873H22.5838H22.5802H22.5767H22.5732H22.5696H22.566H22.5625H22.5589H22.5553H22.5517H22.5481H22.5445H22.5409H22.5372H22.5336H22.53H22.5263H22.5227H22.519H22.5153H22.5116H22.508H22.5043H22.5006H22.4969H22.4932H22.4895H22.4857H22.482H22.4783H22.4746H22.4708H22.4671H22.4633H22.4596H22.4558H22.452H22.4483H22.4445H22.4407H22.4369H22.4331H22.4293H22.4255H22.4217H22.4179H22.4141H22.4103H22.4065H22.4027H22.3989H22.395H22.3912H22.3874H22.3836H22.3797H22.3759H22.372H22.3682H22.3644H22.3605H22.3567H22.3528H22.349H22.3451H22.3412H22.3374H22.3335H22.3297H22.3258H22.3219H22.3181H22.3142H22.3104H22.3065H22.3026H22.2988H22.2949H22.291H22.2872H22.2833H22.2794H22.2756H22.2717H22.2678H22.264H22.2601H22.2562H22.2524H22.2485H22.2447H22.2408H22.237H22.2331H22.2293H22.2254H22.2216H22.2177H22.2139H22.21H22.2062H22.2023H22.1985H22.1947H22.1908H22.187H22.1832H22.1794H22.1756H22.1717H22.1679H22.1641H22.1603H22.1565H22.1527H22.1489H22.1452H22.1414H22.1376H22.1338H22.1301H22.1263H22.1225H22.1188H22.115H22.1113H22.1075H22.1038H22.1001H22.0964H22.0926H22.0889H22.0852H22.0815H22.0778H22.0742H22.0705H22.0668H22.0631H22.0595H22.0558H22.0522H22.0485H22.0449H22.0413H22.0377H22.0341H22.0304H22.0269H22.0233H22.0197H22.0161H22.0126H22.009H22.0055H22.0019H21.9984H21.9949H21.9914H21.9879H21.9844H21.9809H21.9774H21.9739H21.9705H21.967H21.9636H21.9602H21.9568H21.9534H21.95H21.9466H21.9432H21.9398H21.9365H21.9331H21.9298H21.9265H21.9232H21.9199H21.9166H21.9133H21.9101H21.9068H21.9036H21.9003H21.8971H21.8939H21.8907H21.8875H21.8844H21.8812H21.8781H21.8749H21.8718H21.8687H21.8656H21.8625H21.8595H21.8564H21.8534H21.8504H21.8474H21.8444H21.8414H21.8384H21.8355H21.8325H21.8296H21.8267H21.8238H21.8209H21.818H21.8152H21.8124H21.8095H21.8067H21.8039H21.8012H21.7984H21.7957H21.7929H21.7902H21.7875H21.7849H21.7822H21.7795H21.7769H21.7743H21.7717H21.7691H21.7666H21.764H21.7615H21.759H21.7565H21.754H21.7516H21.7491H21.7467H21.7443H21.7419H21.7396H21.7372H21.7349H21.7326H21.7303H21.728H21.7257H21.7235H21.7213H21.7191H21.7169H21.7148H21.7126H21.7105H21.7084H21.7063H21.7043H21.7022H21.7002H21.6982H21.6962H21.6943H21.6923H21.6904H21.6885H21.6866H21.6848H21.683H21.6812H21.6794H21.6776H21.6759H21.6741H21.6724H21.6708H21.6691H21.6675H21.6658H21.6643H21.6627H21.6611H21.6596H21.6581H21.6567H21.6552H21.6538H21.6524H21.651H21.6496H21.6483H21.647H21.6457H21.6444H21.6432H21.642H21.6408H21.6396H21.6385H21.6374H21.6363H21.6352H21.6342H21.6331H21.6322H21.6312H21.6303H21.6293H21.6285H21.6276H21.6268H21.6259H21.6252H21.6244H21.6237H21.623H21.6223H21.6216H21.621H21.6204H21.6198H21.6193H21.6188H21.6183H21.6178H21.6174H21.617C21.308 14.9653 20.9842 15.0394 20.738 15.273C20.487 15.5112 20.402 15.8334 20.402 16.1456V17.6441V18.1441H20.902H22.6665L22.4549 20.0005H20.902H20.402V20.5005V26.7H18.2917V20.4696ZM22.9691 15.2319L22.9691 14.9653C22.9691 14.9653 22.9691 14.9653 22.9691 14.9653L22.9691 15.2319Z" stroke="#FF0000"/>
</svg>
