<svg width="249" height="309" viewBox="0 0 249 309" fill="none" xmlns="http://www.w3.org/2000/svg">
<path d="M121.345 163.867C120.994 163.943 120.71 164.202 120.602 164.545C120.495 164.889 120.58 165.263 120.825 165.526L146.823 193.395L146.824 193.396L216.406 267.767L167.762 307.55L85.334 192.132C85.1468 191.87 84.8448 191.714 84.5227 191.713C84.2006 191.712 83.8979 191.866 83.7094 192.128L0.431602 307.515L-47.3715 268.649L47.3713 165.521C47.6137 165.257 47.6964 164.884 47.5882 164.542C47.48 164.201 47.1975 163.943 46.8475 163.867L-78.7522 136.547L-62.1788 77.1112L59.934 119.315C60.2501 119.424 60.5998 119.368 60.8659 119.166C61.1321 118.964 61.2795 118.642 61.2588 118.308L53.4 -8H115.64L107.782 118.308L107.781 118.322L107.74 119.172C107.725 119.504 107.875 119.823 108.142 120.022C108.409 120.22 108.758 120.273 109.072 120.162L231.26 77.0776L243.023 119.486L243.023 119.487L247.754 136.586L121.345 163.867Z" stroke="#FF0000" stroke-width="2" stroke-linejoin="round"/>
</svg>
