<svg width="35" height="35" viewBox="0 0 35 35" fill="none" xmlns="http://www.w3.org/2000/svg">
<path fill-rule="evenodd" clip-rule="evenodd" d="M17.0833 21.4695C19.4305 21.4695 21.3333 19.5667 21.3333 17.2195C21.3333 14.8723 19.4305 12.9695 17.0833 12.9695C14.736 12.9695 12.8333 14.8723 12.8333 17.2195C12.8333 19.5667 14.736 21.4695 17.0833 21.4695Z" stroke="#FFD600" stroke-width="3" stroke-linecap="round" stroke-linejoin="round"/>
<path fill-rule="evenodd" clip-rule="evenodd" d="M27.5667 21.4696C27.1808 22.3438 27.366 23.3648 28.0342 24.0479L28.1192 24.1329C28.6512 24.6643 28.9501 25.3855 28.9501 26.1375C28.9501 26.8895 28.6512 27.6106 28.1192 28.1421C27.5877 28.6741 26.8666 28.973 26.1146 28.973C25.3626 28.973 24.6414 28.6741 24.11 28.1421L24.025 28.0571C23.3419 27.3889 22.3209 27.2037 21.4467 27.5896C20.5903 27.9566 20.0337 28.7971 20.03 29.7287V29.9696C20.03 31.5344 18.7615 32.8029 17.1967 32.8029C15.6319 32.8029 14.3633 31.5344 14.3633 29.9696V29.8421C14.3409 28.8825 13.7342 28.0342 12.8333 27.7029C11.9591 27.3171 10.9381 27.5022 10.255 28.1704L10.17 28.2554C9.63856 28.7874 8.91741 29.0864 8.16542 29.0864C7.41342 29.0864 6.69228 28.7874 6.16083 28.2554C5.6288 27.724 5.32985 27.0028 5.32985 26.2508C5.32985 25.4988 5.6288 24.7777 6.16083 24.2462L6.24583 24.1612C6.91403 23.4781 7.09916 22.4571 6.71333 21.5829C6.34632 20.7266 5.50583 20.1699 4.57417 20.1662H4.33333C2.76853 20.1662 1.5 18.8977 1.5 17.3329C1.5 15.7681 2.76853 14.4996 4.33333 14.4996H4.46083C5.42038 14.4771 6.26869 13.8704 6.6 12.9696C6.98582 12.0954 6.80069 11.0743 6.1325 10.3912L6.0475 10.3062C5.51546 9.77479 5.21652 9.05364 5.21652 8.30165C5.21652 7.54965 5.51546 6.82851 6.0475 6.29706C6.57894 5.76503 7.30009 5.46608 8.05208 5.46608C8.80408 5.46608 9.52522 5.76503 10.0567 6.29706L10.1417 6.38206C10.8248 7.05026 11.8458 7.23539 12.72 6.84956H12.8333C13.6897 6.48255 14.2463 5.64206 14.25 4.7104V4.46956C14.25 2.90476 15.5185 1.63623 17.0833 1.63623C18.6481 1.63623 19.9167 2.90476 19.9167 4.46956V4.59706C19.9204 5.52872 20.477 6.36922 21.3333 6.73623C22.2075 7.12205 23.2286 6.93692 23.9117 6.26873L23.9967 6.18373C24.5281 5.6517 25.2493 5.35275 26.0012 5.35275C26.7532 5.35275 27.4744 5.6517 28.0058 6.18373C28.5379 6.71517 28.8368 7.43632 28.8368 8.18831C28.8368 8.94031 28.5379 9.66145 28.0058 10.1929L27.9208 10.2779C27.2526 10.961 27.0675 11.982 27.4533 12.8562V12.9696C27.8203 13.8259 28.6608 14.3825 29.5925 14.3862H29.8333C31.3981 14.3862 32.6667 15.6548 32.6667 17.2196C32.6667 18.7844 31.3981 20.0529 29.8333 20.0529H29.7058C28.7742 20.0566 27.9337 20.6132 27.5667 21.4696Z" stroke="#FFD600" stroke-width="3" stroke-linecap="round" stroke-linejoin="round"/>
</svg>
