<svg width="35" height="30" viewBox="0 0 35 30" fill="none" xmlns="http://www.w3.org/2000/svg">
<path d="M24.1667 27.553V24.7196C24.1667 21.59 21.6296 19.053 18.5 19.053H7.16667C4.03705 19.053 1.5 21.59 1.5 24.7196V27.553" stroke="#4DBFFF" stroke-width="3" stroke-linecap="round" stroke-linejoin="round"/>
<path fill-rule="evenodd" clip-rule="evenodd" d="M12.8332 13.3863C15.9628 13.3863 18.4998 10.8493 18.4998 7.71965C18.4998 4.59003 15.9628 2.05298 12.8332 2.05298C9.70356 2.05298 7.1665 4.59003 7.1665 7.71965C7.1665 10.8493 9.70356 13.3863 12.8332 13.3863Z" stroke="#4DBFFF" stroke-width="3" stroke-linecap="round" stroke-linejoin="round"/>
<path d="M32.6665 27.5529V24.7196C32.6646 22.1371 30.9169 19.8827 28.4165 19.2371" stroke="#4DBFFF" stroke-width="3" stroke-linecap="round" stroke-linejoin="round"/>
<path d="M22.75 2.23706C25.2574 2.87905 27.0111 5.13838 27.0111 7.72664C27.0111 10.3149 25.2574 12.5742 22.75 13.2162" stroke="#4DBFFF" stroke-width="3" stroke-linecap="round" stroke-linejoin="round"/>
</svg>
