<svg width="29" height="32" viewBox="0 0 29 32" fill="none" xmlns="http://www.w3.org/2000/svg">
<path fill-rule="evenodd" clip-rule="evenodd" d="M22.75 10.5527C25.0972 10.5527 27 8.64994 27 6.30273C27 3.95552 25.0972 2.05273 22.75 2.05273C20.4028 2.05273 18.5 3.95552 18.5 6.30273C18.5 8.64994 20.4028 10.5527 22.75 10.5527Z" stroke="#CB1878" stroke-width="3" stroke-linecap="round" stroke-linejoin="round"/>
<path fill-rule="evenodd" clip-rule="evenodd" d="M5.75 20.4695C8.09721 20.4695 10 18.5667 10 16.2195C10 13.8723 8.09721 11.9695 5.75 11.9695C3.40279 11.9695 1.5 13.8723 1.5 16.2195C1.5 18.5667 3.40279 20.4695 5.75 20.4695Z" stroke="#CB1878" stroke-width="3" stroke-linecap="round" stroke-linejoin="round"/>
<path fill-rule="evenodd" clip-rule="evenodd" d="M22.75 30.3862C25.0972 30.3862 27 28.4834 27 26.1362C27 23.789 25.0972 21.8862 22.75 21.8862C20.4028 21.8862 18.5 23.789 18.5 26.1362C18.5 28.4834 20.4028 30.3862 22.75 30.3862Z" stroke="#CB1878" stroke-width="3" stroke-linecap="round" stroke-linejoin="round"/>
<path d="M9.41919 18.3586L19.095 23.997" stroke="#CB1878" stroke-width="3" stroke-linecap="round" stroke-linejoin="round"/>
<path d="M19.0809 8.44189L9.41919 14.0802" stroke="#CB1878" stroke-width="3" stroke-linecap="round" stroke-linejoin="round"/>
</svg>
