<svg width="34" height="34" viewBox="0 0 34 34" fill="none" xmlns="http://www.w3.org/2000/svg">
<path fill-rule="evenodd" clip-rule="evenodd" d="M16.5301 32.0607C24.8311 32.0607 31.5605 25.3314 31.5605 17.0303C31.5605 8.72932 24.8311 2 16.5301 2C8.22907 2 1.49976 8.72932 1.49976 17.0303C1.49976 25.3314 8.22907 32.0607 16.5301 32.0607Z" stroke="#4DBFFF" stroke-width="3" stroke-linecap="round" stroke-linejoin="round"/>
<path fill-rule="evenodd" clip-rule="evenodd" d="M16.5302 26.0486C21.5108 26.0486 25.5484 22.011 25.5484 17.0304C25.5484 12.0497 21.5108 8.01215 16.5302 8.01215C11.5496 8.01215 7.51196 12.0497 7.51196 17.0304C7.51196 22.011 11.5496 26.0486 16.5302 26.0486Z" stroke="#4DBFFF" stroke-width="3" stroke-linecap="round" stroke-linejoin="round"/>
<path fill-rule="evenodd" clip-rule="evenodd" d="M16.53 20.0364C18.1902 20.0364 19.5361 18.6906 19.5361 17.0304C19.5361 15.3702 18.1902 14.0243 16.53 14.0243C14.8698 14.0243 13.5239 15.3702 13.5239 17.0304C13.5239 18.6906 14.8698 20.0364 16.53 20.0364Z" stroke="#4DBFFF" stroke-width="3" stroke-linecap="round" stroke-linejoin="round"/>
</svg>
