<svg width="62" height="51" viewBox="0 0 62 51" fill="none" xmlns="http://www.w3.org/2000/svg">
<path d="M44.3717 6.04395H16.1438V32.3209H44.3717V6.04395Z" stroke="white" stroke-width="2" stroke-miterlimit="10" stroke-linecap="round" stroke-linejoin="round"/>
<path d="M48.9457 1.78613H11.5698V40.4664H48.9457V1.78613Z" stroke="white" stroke-width="2" stroke-miterlimit="10" stroke-linecap="round" stroke-linejoin="round"/>
<path d="M31.2249 18.4471C33.6182 18.4471 35.5584 16.5249 35.5584 14.1537C35.5584 11.7826 33.6182 9.86035 31.2249 9.86035C28.8315 9.86035 26.8914 11.7826 26.8914 14.1537C26.8914 16.5249 28.8315 18.4471 31.2249 18.4471Z" stroke="white" stroke-width="2" stroke-miterlimit="10" stroke-linecap="round" stroke-linejoin="round"/>
<path d="M16.1438 32.3201L26.332 22.2271L36.5568 32.3564" stroke="white" stroke-width="2" stroke-miterlimit="10" stroke-linecap="round" stroke-linejoin="round"/>
<path d="M44.3716 23.5837L39.6669 18.9229L31.3345 27.1829" stroke="white" stroke-width="2" stroke-miterlimit="10" stroke-linecap="round" stroke-linejoin="round"/>
<path d="M11.5803 40.2238L6.33203 14.4646L11.5699 13.4185" stroke="white" stroke-width="2" stroke-miterlimit="10" stroke-linecap="round" stroke-linejoin="round"/>
<path d="M30.8275 44.6871L8.72608 49.1046L1 11.1857L11.5698 9.07275" stroke="white" stroke-width="2" stroke-miterlimit="10" stroke-linecap="round" stroke-linejoin="round"/>
<path d="M48.9456 13.3711L55.6157 14.816L49.944 40.4872L48.9456 40.2697" stroke="white" stroke-width="2" stroke-miterlimit="10" stroke-linecap="round" stroke-linejoin="round"/>
<path d="M48.9561 9.01611L61 11.6262L52.6571 49.4155L16.1438 41.5024L16.3738 40.4667" stroke="white" stroke-width="2" stroke-miterlimit="10" stroke-linecap="round" stroke-linejoin="round"/>
</svg>
