<svg width="57" height="58" viewBox="0 0 57 58" fill="none" xmlns="http://www.w3.org/2000/svg">
<path d="M6.66943 17.9592V13.1873L19.2016 1.10107H44.3768C47.2701 1.10107 49.6147 3.42387 49.6147 6.29031V11.9463" stroke="white" stroke-width="2" stroke-miterlimit="10" stroke-linecap="round" stroke-linejoin="round"/>
<path d="M49.6146 45.9586V50.9117C49.6146 53.7782 47.27 56.101 44.3767 56.101H11.9017C9.0084 56.101 6.66382 53.7782 6.66382 50.9117V34.9048" stroke="white" stroke-width="2" stroke-miterlimit="10" stroke-linecap="round" stroke-linejoin="round"/>
<path d="M40.2363 44.0089C48.826 44.0089 55.7893 37.1104 55.7893 28.6007C55.7893 20.0909 48.826 13.1924 40.2363 13.1924C31.6466 13.1924 24.6833 20.0909 24.6833 28.6007C24.6833 37.1104 31.6466 44.0089 40.2363 44.0089Z" stroke="white" stroke-width="2" stroke-miterlimit="10" stroke-linecap="round" stroke-linejoin="round"/>
<path d="M51.4826 17.959L40.2363 28.6009L51.2775 39.457" stroke="white" stroke-width="2" stroke-miterlimit="10" stroke-linecap="round" stroke-linejoin="round"/>
<path d="M40.2363 13.1924V28.6007" stroke="white" stroke-width="2" stroke-miterlimit="10" stroke-linecap="round" stroke-linejoin="round"/>
<path d="M24.2898 7.2793H40.2363" stroke="white" stroke-width="2" stroke-miterlimit="10" stroke-linecap="round" stroke-linejoin="round"/>
<path d="M43.9277 7.2793H45.8622" stroke="white" stroke-width="2" stroke-miterlimit="10" stroke-linecap="round" stroke-linejoin="round"/>
<path d="M20.5981 50.7031H22.527" stroke="white" stroke-width="2" stroke-miterlimit="10" stroke-linecap="round" stroke-linejoin="round"/>
<path d="M11.0149 45.877H17.7715" stroke="white" stroke-width="2" stroke-miterlimit="10" stroke-linecap="round" stroke-linejoin="round"/>
<path d="M4.80713 26.1904H14.0802" stroke="white" stroke-width="2" stroke-miterlimit="10" stroke-linecap="round" stroke-linejoin="round"/>
<path d="M11.0149 50.7031H17.7715" stroke="white" stroke-width="2" stroke-miterlimit="10" stroke-linecap="round" stroke-linejoin="round"/>
<path d="M19.2016 1.3467V10.3258C19.2016 11.9072 17.9101 13.1867 16.3138 13.1867H13.1101" stroke="white" stroke-width="2" stroke-miterlimit="10" stroke-linecap="round" stroke-linejoin="round"/>
<path d="M15.8259 21.2866H3.06098C1.98569 21.2866 1.11548 22.1488 1.11548 23.2141V29.1667C1.11548 30.232 1.98569 31.0941 3.06098 31.0941H9.2079L12.1123 33.9716C12.3894 34.2461 12.8606 34.0539 12.8606 33.664V31.0941H15.8259C16.9012 31.0941 17.7714 30.232 17.7714 29.1667V23.2141C17.7714 22.1488 16.9012 21.2866 15.8259 21.2866Z" stroke="white" stroke-width="2" stroke-miterlimit="10" stroke-linecap="round" stroke-linejoin="round"/>
</svg>
