<svg width="63" height="66" viewBox="0 0 63 66" fill="none" xmlns="http://www.w3.org/2000/svg">
<path d="M47.3409 38.7706C47.3409 51.4684 37.0505 61.7609 24.3553 61.7609C18.0192 61.7609 12.2843 59.1936 8.12195 55.0534C3.95956 50.8902 1.36963 45.1311 1.36963 38.7706C1.36963 26.0727 11.66 15.7803 24.3553 15.7803C37.0505 15.7803 47.3409 26.0727 47.3409 38.7706Z" stroke="white" stroke-width="2" stroke-miterlimit="10" stroke-linecap="round" stroke-linejoin="round"/>
<path d="M40.5887 38.7703C40.5887 47.7444 33.3276 55.0069 24.3554 55.0069C15.4062 55.0069 8.12207 47.7444 8.12207 38.7703C8.12207 29.8193 15.3831 22.5337 24.3554 22.5337C33.3276 22.5337 40.5887 29.7962 40.5887 38.7703Z" stroke="white" stroke-width="2" stroke-miterlimit="10" stroke-linecap="round" stroke-linejoin="round"/>
<path d="M33.0036 38.7709C33.0036 43.5586 29.1418 47.4212 24.3551 47.4212C19.5683 47.4212 15.7065 43.5355 15.7065 38.7709C15.7065 33.9832 19.5683 30.1206 24.3551 30.1206C29.1418 30.1206 33.0036 33.9832 33.0036 38.7709Z" stroke="white" stroke-width="2" stroke-miterlimit="10" stroke-linecap="round" stroke-linejoin="round"/>
<path d="M52.6745 10.4282L24.332 38.7706" stroke="white" stroke-width="2" stroke-miterlimit="10" stroke-linecap="round" stroke-linejoin="round"/>
<path d="M51.9114 19.4188L43.1704 19.9507L52.6283 10.491L61.3693 9.95898L51.9114 19.4188Z" stroke="white" stroke-width="2" stroke-miterlimit="10" stroke-linecap="round" stroke-linejoin="round"/>
<path d="M43.7021 11.1619L43.1934 19.9279L52.6512 10.4681L53.16 1.70215L43.7021 11.1619Z" stroke="white" stroke-width="2" stroke-miterlimit="10" stroke-linecap="round" stroke-linejoin="round"/>
<path d="M10.4344 57.0894L6.59578 64.1438H2.20215L6.31829 53.0649" stroke="white" stroke-width="2" stroke-miterlimit="10" stroke-linecap="round" stroke-linejoin="round"/>
<path d="M38.2761 57.0889L42.0916 64.1433H46.5084L42.3923 53.0645" stroke="white" stroke-width="2" stroke-miterlimit="10" stroke-linecap="round" stroke-linejoin="round"/>
</svg>
