<svg width="62" height="61" viewBox="0 0 62 61" fill="none" xmlns="http://www.w3.org/2000/svg">
<path d="M1 31.4131H61" stroke="white" stroke-width="2" stroke-miterlimit="10" stroke-linecap="round" stroke-linejoin="round"/>
<path d="M9.24458 19.123H4.06958V31.4079H9.24458V19.123Z" stroke="white" stroke-width="2" stroke-miterlimit="10" stroke-linecap="round" stroke-linejoin="round"/>
<path d="M18.9548 6.06592H13.7798V31.4129H18.9548V6.06592Z" stroke="white" stroke-width="2" stroke-miterlimit="10" stroke-linecap="round" stroke-linejoin="round"/>
<path d="M23.4893 9.54837V1.57324H28.6593V27.48" stroke="white" stroke-width="2" stroke-miterlimit="10" stroke-linecap="round" stroke-linejoin="round"/>
<path d="M28.6593 31.4127H23.4893V13.5059" stroke="white" stroke-width="2" stroke-miterlimit="10" stroke-linecap="round" stroke-linejoin="round"/>
<path d="M38.3696 15.2646H33.1946V31.4131H38.3696V15.2646Z" stroke="white" stroke-width="2" stroke-miterlimit="10" stroke-linecap="round" stroke-linejoin="round"/>
<path d="M48.0798 24.1118H42.9048V31.413H48.0798V24.1118Z" stroke="white" stroke-width="2" stroke-miterlimit="10" stroke-linecap="round" stroke-linejoin="round"/>
<path d="M57.7893 9.36475H52.6143V31.4079H57.7893V9.36475Z" stroke="white" stroke-width="2" stroke-miterlimit="10" stroke-linecap="round" stroke-linejoin="round"/>
<path d="M39.2398 39.726C36.7798 41.0783 33.9448 41.851 30.9298 41.851C21.4598 41.851 13.7798 34.2425 13.7798 24.8606C13.7798 15.4787 21.4598 7.87012 30.9298 7.87012C40.3998 7.87012 48.0798 15.4787 48.0798 24.8606C48.0798 29.7348 46.0048 34.1335 42.6848 37.2344" stroke="white" stroke-width="2" stroke-miterlimit="10" stroke-linecap="round" stroke-linejoin="round"/>
<path d="M33.2056 41.8506L34.9906 49.7019C35.0706 50.0486 35.0656 50.4053 34.9856 50.7471L33.2706 57.8554C33.0206 58.8956 32.0806 59.6287 31.0006 59.6287C29.9206 59.6287 28.9806 58.8956 28.7306 57.8554L27.0156 50.7471C26.9306 50.4053 26.9306 50.0486 27.0106 49.7019L28.7956 41.8506" stroke="white" stroke-width="2" stroke-miterlimit="10" stroke-linecap="round" stroke-linejoin="round"/>
</svg>
