<svg width="72" height="55" viewBox="0 0 72 55" fill="none" xmlns="http://www.w3.org/2000/svg">
<path d="M24.5856 23.6032H14.6448C10.8602 23.6032 7.78882 20.5602 7.78882 16.8105H17.6939" stroke="white" stroke-width="2" stroke-miterlimit="10" stroke-linecap="round" stroke-linejoin="round"/>
<path d="M7.85577 16.8107C4.07114 16.8107 0.999756 13.7679 0.999756 10.0186H23.0433C29.3065 10.0186 34.3883 15.0531 34.3883 21.2623V30.3995H21.6347C17.85 30.3995 14.7787 27.3567 14.7787 23.6073" stroke="white" stroke-width="2" stroke-miterlimit="10" stroke-linecap="round" stroke-linejoin="round"/>
<path d="M47.4138 23.6041H57.3546C61.1392 23.6041 64.2106 20.5612 64.2106 16.8115H54.3055" stroke="white" stroke-width="2" stroke-miterlimit="10" stroke-linecap="round" stroke-linejoin="round"/>
<path d="M64.1437 16.8113C67.9284 16.8113 70.9997 13.7685 70.9997 10.019H48.9562C42.6886 10.019 37.6112 15.0536 37.6112 21.2585V30.3958H50.3648C54.1495 30.3958 57.2208 27.353 57.2208 23.6035" stroke="white" stroke-width="2" stroke-miterlimit="10" stroke-linecap="round" stroke-linejoin="round"/>
<path d="M37.393 7.76637H34.5756C33.5325 7.76637 32.6855 6.92722 32.6855 5.89374V3.50879H39.2875V5.89374C39.2831 6.92722 38.4361 7.76637 37.393 7.76637Z" stroke="white" stroke-width="2" stroke-miterlimit="10" stroke-linecap="round" stroke-linejoin="round"/>
<path d="M37.6113 10.019H34.3883V32.8024H37.6113V10.019Z" stroke="white" stroke-width="2" stroke-miterlimit="10" stroke-linecap="round" stroke-linejoin="round"/>
<path d="M29.2664 38.6903V35.7661H33.2471" stroke="white" stroke-width="2" stroke-miterlimit="10" stroke-linecap="round" stroke-linejoin="round"/>
<path d="M38.7524 35.7661H42.7332V44.4927C42.7332 46.8025 41.6366 48.9797 39.7732 50.3664L36.002 53.1752L32.2307 50.3664C30.3674 48.9797 29.2708 46.8025 29.2708 44.4927V42.2713" stroke="white" stroke-width="2" stroke-miterlimit="10" stroke-linecap="round" stroke-linejoin="round"/>
<path d="M38.4939 32.8027H33.5012V37.1531C33.5012 38.3809 34.5042 39.3746 35.7434 39.3746H36.2472C37.4864 39.3746 38.4894 38.3809 38.4894 37.1531V32.8027H38.4939Z" stroke="white" stroke-width="2" stroke-miterlimit="10" stroke-linecap="round" stroke-linejoin="round"/>
<path d="M38.4939 32.8027H33.5012V37.1531C33.5012 38.3809 34.5042 39.3746 35.7434 39.3746H36.2472C37.4864 39.3746 38.4894 38.3809 38.4894 37.1531V32.8027H38.4939Z" stroke="white" stroke-width="2" stroke-miterlimit="10" stroke-linecap="round" stroke-linejoin="round"/>
<path d="M30.3763 3.23534V1.25684H41.592V6.51665C41.592 8.45099 40.0095 10.0232 38.0526 10.0232H33.9158C31.9633 10.0232 30.3763 8.4554 30.3763 6.51665V5.99111" stroke="white" stroke-width="2" stroke-miterlimit="10" stroke-linecap="round" stroke-linejoin="round"/>
</svg>
