<svg width="305" height="440" viewBox="0 0 305 440" fill="none" xmlns="http://www.w3.org/2000/svg">
<path d="M0.883789 438C23.4467 380.125 80.4519 342.094 90.4557 333.504C85.8887 298.328 84.8558 264.837 81.4305 247.004C66.0171 254.18 46.0095 248.118 33.5048 236.592C21.0001 225.066 14.2584 198.154 24.8874 184.861C35.5164 171.568 55.9861 164.989 66.1802 178.581C63.2987 162.379 52.2891 119.102 57.6444 95.8326C66.1802 58.9165 154.746 27.41 199.791 52.3651C239.017 74.0852 271.502 137.343 260.221 200.573C257.367 216.53 251.93 232.297 242.334 245.373C232.711 258.448 212.975 272.421 196.991 275.303L200.552 335.488C230.074 356.882 283.355 383.979 304.803 438.592L0.883789 438Z" fill="#FFE3E3"/>
<path d="M274.846 160.694C280.935 163.331 285.121 169.393 286.535 175.89C287.949 182.387 286.861 189.183 284.659 195.463C281.234 205.168 275.118 213.894 267.153 220.418C263.619 223.327 258.726 225.882 254.621 223.789C251.359 222.131 250.054 218.189 249.347 214.6C246.465 200.166 248.613 149.413 274.846 160.694Z" fill="#FFE3E3"/>
<path d="M91.8154 248.472C117.532 275.819 151.947 289.167 194.762 278.782" stroke="black" stroke-width="2.5" stroke-miterlimit="10" stroke-linecap="round"/>
<path d="M155.916 219.983C155.916 219.983 173.749 236.973 209.795 224.496" stroke="black" stroke-width="2.5" stroke-miterlimit="10" stroke-linecap="round"/>
<path d="M32.7985 203.237C32.0645 196.74 37.746 190.706 44.1886 189.564C50.6313 188.422 57.237 191.331 62.103 195.68C66.969 200.057 70.3942 205.738 73.7378 211.366" stroke="black" stroke-width="2.5" stroke-miterlimit="10" stroke-linecap="round"/>
<path d="M51.3398 221.043C54.8738 213.785 61.0174 207.859 68.3843 204.57" stroke="black" stroke-width="2.5" stroke-miterlimit="10" stroke-linecap="round"/>
<path d="M140.012 141.964C140.909 146.151 138.055 150.31 133.678 151.234C129.302 152.158 125.034 149.521 124.137 145.335C123.24 141.149 126.094 136.99 130.471 136.065C134.847 135.141 139.115 137.778 140.012 141.964Z" fill="black"/>
<path d="M116.334 142.997C116.334 142.997 123.021 125.6 145.883 134.135" stroke="black" stroke-width="2.5" stroke-miterlimit="10" stroke-linecap="round"/>
<path d="M231.27 133.592C231.596 138.077 228.361 141.964 224.093 142.263C219.825 142.562 216.101 139.164 215.775 134.679C215.448 130.194 218.683 126.306 222.951 126.007C227.246 125.708 230.971 129.106 231.27 133.592Z" fill="black"/>
<path d="M211.344 127.937C211.344 127.937 223.577 114.427 238.093 129.079" stroke="black" stroke-width="2.5" stroke-miterlimit="10" stroke-linecap="round"/>
<path d="M200.255 318.417C217.462 319.64 229.369 329.4 238.666 343.916C251.144 363.461 260.604 388.335 268.65 411.686C271.151 418.944 265.144 426.311 257.532 425.224C250.6 424.245 243.668 424.028 240.787 424.816C235.676 426.203 231.408 430.226 229.559 435.146C229.315 435.799 228.363 435.744 228.255 435.037C225.971 421.01 215.886 363.217 200.282 337.256" stroke="black" stroke-width="2.5" stroke-miterlimit="10" stroke-linecap="round"/>
<path d="M85.4844 308.821C99.1852 334.048 122.455 352.37 143.115 372.323C163.775 392.277 182.287 409.104 184.19 437.756" stroke="black" stroke-width="2.5" stroke-miterlimit="10" stroke-linecap="round"/>
<path d="M84.8308 309.092C77.7358 324.778 70.5863 342.855 77.5183 358.622C80.6173 365.717 86.2716 371.344 91.7628 376.808C107.611 392.493 123.432 408.179 139.281 423.864C142.896 427.452 147.219 431.312 152.302 430.877C158.147 430.388 161.925 424.38 163.366 418.699C164.807 413.017 164.943 406.847 167.851 401.79" stroke="black" stroke-width="2.5" stroke-miterlimit="10" stroke-linecap="round"/>
<path d="M159.561 388.607C181.199 396.49 196.912 394.56 217.708 384.638" stroke="black" stroke-width="2.5" stroke-miterlimit="10" stroke-linecap="round"/>
<path d="M198.432 72.3188C196.828 58.5636 190.087 45.4609 179.811 36.1367C169.535 26.8397 155.835 21.4301 141.971 21.1854" stroke="black" stroke-width="2.5" stroke-miterlimit="10" stroke-linecap="round"/>
<path d="M169.155 78.8161C161.489 68.0511 153.578 57.0415 142.705 49.5115C131.831 41.9815 117.206 38.4747 105.19 43.9931" stroke="black" stroke-width="2.5" stroke-miterlimit="10" stroke-linecap="round"/>
<path d="M147.571 82.4586C142.161 72.3461 129.412 67.8879 117.994 69.1112C106.577 70.3617 96.2197 76.2063 86.5693 82.4043C76.9189 88.6023 67.3773 95.3983 56.4492 98.9051" stroke="black" stroke-width="2.5" stroke-miterlimit="10" stroke-linecap="round"/>
<path d="M133.244 74.7381C124.518 91.0758 110.382 104.45 93.5826 112.252C87.0584 115.27 79.7186 117.852 75.8585 123.914C72.2973 129.487 72.6779 136.745 74.4721 143.079C76.2662 149.44 79.3109 155.394 80.8875 161.809C82.1924 167.083 82.2196 173.308 78.441 177.25C74.6896 181.191 66.3712 180.104 65.5557 174.722" stroke="black" stroke-width="2.5" stroke-miterlimit="10" stroke-linecap="round"/>
<path d="M182.392 426.229C182.392 426.229 209.168 436.886 226.702 426.229" stroke="black" stroke-width="2.5" stroke-miterlimit="10" stroke-linecap="round"/>
<path d="M176.357 410.789C176.357 410.789 208.136 419.162 222.516 405.053" stroke="black" stroke-width="2.5" stroke-miterlimit="10" stroke-linecap="round"/>
<path d="M202.375 144.058C202.375 144.058 202.375 154.279 211.345 188.259C214.173 198.97 182.856 197.311 182.856 197.311" stroke="black" stroke-width="2.5" stroke-miterlimit="10" stroke-linecap="round"/>
<path d="M245.271 68.9204C267.78 83.9261 262.262 161.945 262.262 161.945C263.893 184.779 262.941 197.638 255.194 219.195" stroke="black" stroke-width="2.5" stroke-miterlimit="10" stroke-linecap="round"/>
<path d="M215.477 72.3185C215.477 72.3185 240.514 1.66675 170.216 1.66675C126.612 1.66675 108.725 39.6702 65.5293 28.9053" stroke="black" stroke-width="2.5" stroke-miterlimit="10" stroke-linecap="round"/>
<path d="M66.4244 55.1923C66.4244 55.1923 18.9336 64.3262 51.2828 165.343" stroke="black" stroke-width="2.5" stroke-miterlimit="10" stroke-linecap="round"/>
<path d="M229.693 74.7377C229.693 74.7377 240.649 54.7029 237.55 41.3011" stroke="black" stroke-width="2.5" stroke-miterlimit="10" stroke-linecap="round"/>
</svg>
