<svg width="307" height="424" viewBox="0 0 307 424" fill="none" xmlns="http://www.w3.org/2000/svg">
<path d="M2.41992 418.526C24.9828 364.538 81.988 326.508 91.9918 317.945C87.4249 282.768 86.3919 249.277 82.9667 231.445C67.5532 238.621 47.5457 232.559 35.0409 221.033C22.5362 209.507 15.7945 182.595 26.4236 169.301C37.0526 156.008 57.5223 149.43 67.7163 163.022C66.7649 147.935 53.8252 103.543 59.1805 80.2733C67.7163 43.3572 156.282 11.8507 201.327 36.8058C240.553 58.526 273.038 121.784 261.757 185.014C258.903 200.971 253.466 216.738 243.87 229.814C234.274 242.889 214.511 256.862 198.527 259.743L202.088 319.929C231.61 341.323 284.891 367.42 306.339 418.146L2.41992 418.526Z" fill="white"/>
<path d="M276.382 145.135C282.471 147.772 286.658 153.834 288.071 160.331C289.485 166.828 288.397 173.624 286.195 179.903C282.77 189.608 276.654 198.334 268.689 204.858C265.155 207.767 260.262 210.322 256.157 208.229C252.895 206.571 251.59 202.629 250.883 199.041C248.002 184.606 250.149 133.853 276.382 145.135Z" fill="white"/>
<path d="M79.4602 323.137C79.4602 323.137 17.0453 372.721 1.63184 422.685" stroke="#FF0000" stroke-width="2.5" stroke-miterlimit="10" stroke-linecap="round" stroke-linejoin="round"/>
<path d="M199.667 285.731C162.914 296.904 110.04 278.935 88.8367 270.617C84.3513 268.85 79.4854 272.167 79.4854 276.978V317.455C79.4854 320.038 80.9261 322.403 83.264 323.572C99.2483 331.618 162.886 359.917 210.839 327.867C213.123 326.345 214.319 323.599 213.83 320.908L208.366 291.06C207.604 287.036 203.554 284.563 199.667 285.731Z" stroke="#FF0000" stroke-width="2.5" stroke-miterlimit="10" stroke-linecap="round" stroke-linejoin="round"/>
<path d="M213.804 320.908C213.804 320.908 306.801 378.81 303.729 422.25" stroke="#FF0000" stroke-width="2.5" stroke-miterlimit="10" stroke-linecap="round" stroke-linejoin="round"/>
<path d="M224.841 195.806C202.006 245.852 165.77 214.101 163.812 203.635L224.841 195.806Z" stroke="#FF0000" stroke-width="2.5" stroke-miterlimit="10" stroke-linecap="round" stroke-linejoin="round"/>
<path d="M34.3356 187.678C33.6016 181.181 39.2831 175.146 45.7257 174.004C52.1684 172.863 58.7741 175.771 63.6401 180.121C68.5061 184.497 71.9313 190.179 75.275 195.806" stroke="#FF0000" stroke-width="2.5" stroke-miterlimit="10" stroke-linecap="round" stroke-linejoin="round"/>
<path d="M52.876 205.511C56.4099 198.253 62.5535 192.327 69.9205 189.037" stroke="#FF0000" stroke-width="2.5" stroke-miterlimit="10" stroke-linecap="round" stroke-linejoin="round"/>
<path d="M93.3525 232.913C119.069 260.26 153.484 273.607 196.299 263.223" stroke="#FF0000" stroke-width="2.5" stroke-miterlimit="10" stroke-linecap="round" stroke-linejoin="round"/>
<path d="M263.797 146.385C265.428 169.22 264.477 182.078 256.729 203.635" stroke="#FF0000" stroke-width="2.5" stroke-miterlimit="10" stroke-linecap="round" stroke-linejoin="round"/>
<path d="M142.39 122.3C143.532 127.628 140.541 132.793 135.73 133.799C130.918 134.805 126.107 131.325 124.965 125.97C123.823 120.642 126.813 115.477 131.625 114.471C136.436 113.465 141.248 116.972 142.39 122.3Z" fill="#FF0000"/>
<path d="M233.54 114.988C233.867 119.663 230.251 123.741 225.44 124.094C220.628 124.42 216.469 120.914 216.143 116.211C215.816 111.535 219.432 107.458 224.243 107.104C229.055 106.778 233.214 110.312 233.54 114.988Z" fill="#FF0000"/>
<path d="M68.1261 162.505C66.9028 144.673 69.3222 132.467 75.2484 115.613C81.1745 98.7585 77.0969 92.5333 69.9203 76.1685C69.9203 76.1685 106.347 41.4543 139.213 38.5455" stroke="#FF0000" stroke-width="2.5" stroke-miterlimit="10" stroke-linecap="round" stroke-linejoin="round"/>
<path d="M66.7675 162.152C42.4105 131.896 34.8261 53.7959 65.4083 29.8466C101.563 1.54788 195.022 -10.2772 224.844 16.4448C254.665 43.1669 255.018 95.0887 255.018 95.0887" stroke="#FF0000" stroke-width="2.5" stroke-miterlimit="10" stroke-linecap="round" stroke-linejoin="round"/>
<path d="M200.972 124.149C200.972 124.149 213.041 160.82 211.764 169.302C210.486 177.783 180.176 173.787 180.176 173.787" stroke="#FF0000" stroke-width="2.5" stroke-miterlimit="10" stroke-linecap="round" stroke-linejoin="round"/>
<path d="M148.045 114.58C148.045 114.58 124.721 96.8012 116.186 121.783" stroke="#FF0000" stroke-width="2.5" stroke-miterlimit="10" stroke-linecap="round" stroke-linejoin="round"/>
<path d="M210.271 109.306C210.271 109.306 227.425 89.2712 239.168 110.067" stroke="#FF0000" stroke-width="2.5" stroke-miterlimit="10" stroke-linecap="round" stroke-linejoin="round"/>
<path d="M161.691 37.2951C161.691 37.2951 208.04 38.5184 190.425 3.99448" stroke="#FF0000" stroke-width="2.5" stroke-miterlimit="10" stroke-linecap="round" stroke-linejoin="round"/>
</svg>
