<svg width="376" height="411" viewBox="0 0 376 411" fill="none" xmlns="http://www.w3.org/2000/svg">
<path d="M27.9893 409C50.5521 351.125 107.557 313.094 117.561 304.504C112.994 269.328 111.961 235.837 108.536 218.004C93.1226 225.181 73.115 219.119 60.6103 207.592C48.1056 196.066 41.3638 169.154 51.9929 155.861C62.6219 142.568 83.0916 135.989 93.2856 149.581C92.0624 132.917 79.3946 90.1024 84.7499 66.8327C93.2857 29.9166 181.852 -1.58988 226.896 23.3652C266.123 45.0854 298.608 108.343 287.326 171.573C284.472 187.531 279.035 203.297 269.439 216.373C259.843 229.449 240.08 243.421 224.096 246.303L227.657 306.489C257.179 327.882 310.46 353.979 331.908 408.592L27.9893 409Z" fill="#FF0000"/>
<path d="M117.562 304.504C117.562 304.504 183.919 339.001 227.658 306.489" stroke="black" stroke-width="2.5" stroke-miterlimit="10" stroke-linecap="round"/>
<path d="M118.921 219.472C144.637 246.819 179.052 260.167 221.867 249.783" stroke="black" stroke-width="2.5" stroke-miterlimit="10" stroke-linecap="round"/>
<path d="M59.8746 174.238C59.1407 167.741 64.8222 161.706 71.2648 160.564C77.7075 159.422 84.3132 162.331 89.1792 166.68C94.0451 171.057 97.4704 176.738 100.814 182.366" stroke="black" stroke-width="2.5" stroke-miterlimit="10" stroke-linecap="round"/>
<path d="M78.416 192.043C81.95 184.785 88.0936 178.859 95.4606 175.57" stroke="black" stroke-width="2.5" stroke-miterlimit="10" stroke-linecap="round"/>
<path d="M165.405 172.362C165.405 172.362 179.16 192.804 217.055 188.346" stroke="black" stroke-width="2.5" stroke-miterlimit="10" stroke-linecap="round"/>
<path d="M168.423 108.751C169.7 114.786 166.629 120.522 161.545 121.609C156.462 122.696 151.324 118.673 150.046 112.638C148.769 106.603 151.84 100.867 156.924 99.7801C162.007 98.6927 167.145 102.716 168.423 108.751Z" fill="black"/>
<path d="M259.546 101.52C259.981 107.664 256.256 112.937 251.2 113.291C246.171 113.644 241.74 108.969 241.305 102.825C240.87 96.6813 244.594 91.4075 249.651 91.0541C254.68 90.7007 259.111 95.3764 259.546 101.52Z" fill="black"/>
<path d="M224.909 106.766C224.909 106.766 234.668 124.354 242.389 138.626C250.381 153.387 213.111 154.284 213.111 154.284" stroke="black" stroke-width="2.5" stroke-miterlimit="10" stroke-linecap="round"/>
<path d="M171.466 99.6985C171.466 99.6985 152.111 85.5627 141.373 108.615" stroke="black" stroke-width="2.5" stroke-miterlimit="10" stroke-linecap="round"/>
<path d="M236.219 96.7625C236.219 96.7625 247.011 78.386 264.735 91.0267" stroke="black" stroke-width="2.5" stroke-miterlimit="10" stroke-linecap="round"/>
<path d="M177.255 14.8568C177.255 14.8568 105.244 31.3576 93.2832 149.582" stroke="black" stroke-width="2.5" stroke-miterlimit="10" stroke-linecap="round"/>
<path d="M67.4591 138.844C61.2883 -18.3624 191.229 2.46071 191.229 2.46071C191.229 2.46071 298.633 -9.98965 297.084 149.582C295.534 309.153 314.808 399.785 374.151 408.783" stroke="black" stroke-width="2.5" stroke-miterlimit="10" stroke-linecap="round"/>
<path d="M67.2428 224.664C67.2428 224.664 89.0444 351.995 1.94629 408.783" stroke="black" stroke-width="2.5" stroke-miterlimit="10" stroke-linecap="round"/>
<path d="M194.328 14.8565C194.328 14.8565 243.477 12.2196 275.174 79.9898" stroke="black" stroke-width="2.5" stroke-miterlimit="10" stroke-linecap="round"/>
</svg>
