<svg width="325" height="461" viewBox="0 0 325 461" fill="none" xmlns="http://www.w3.org/2000/svg">
<path d="M12.0918 459C34.3118 402.004 90.4508 364.552 100.303 356.092C95.805 321.45 94.7877 288.468 91.4146 270.906C76.2353 277.974 56.5318 272.004 44.2171 260.653C31.9024 249.302 25.2632 222.799 35.7307 209.708C46.1982 196.616 66.3568 190.138 76.396 203.523C73.5582 187.568 62.7159 144.948 67.9898 122.032C76.396 85.677 163.616 54.6494 207.976 79.2252C246.607 100.615 278.598 162.912 267.488 225.181C264.677 240.896 259.323 256.423 249.873 269.3C240.422 282.177 220.96 295.937 205.218 298.775L208.726 358.046C237.799 379.115 290.27 404.815 311.393 458.598L12.0918 459Z" fill="#FFE3E3"/>
<path d="M281.892 185.908C287.888 188.505 292.011 194.475 293.403 200.873C294.795 207.271 293.725 213.964 291.556 220.148C288.183 229.705 282.159 238.299 274.316 244.724C270.835 247.589 266.016 250.105 261.974 248.044C258.762 246.411 257.476 242.529 256.78 238.995C253.943 224.78 256.058 174.798 281.892 185.908Z" fill="#FFE3E3"/>
<path d="M147.884 167.725C148.611 171.116 146.3 174.589 142.61 175.369C138.923 176.147 135.423 173.919 134.694 170.52C133.968 167.129 136.278 163.656 139.968 162.876C143.656 162.098 147.156 164.326 147.884 167.725Z" fill="black" stroke="black" stroke-width="2.5"/>
<path d="M237.731 159.308C238.006 163.088 235.285 166.268 231.823 166.51C228.366 166.753 225.241 163.987 224.965 160.197C224.69 156.418 227.412 153.238 230.874 152.995C234.331 152.753 237.456 155.518 237.731 159.308Z" fill="black" stroke="black" stroke-width="2.5"/>
<path d="M164.768 244.296C164.768 244.296 182.329 261.028 217.828 248.74" stroke="black" stroke-width="2.5" stroke-miterlimit="10" stroke-linecap="round"/>
<path d="M43.5221 227.805C42.7993 221.407 48.3944 215.463 54.7392 214.339C61.0839 213.215 67.5893 216.079 72.3813 220.363C77.1734 224.673 80.5465 230.268 83.8394 235.809" stroke="black" stroke-width="2.5" stroke-miterlimit="10" stroke-linecap="round"/>
<path d="M61.7539 245.34C65.2341 238.192 71.2844 232.356 78.5394 229.117" stroke="black" stroke-width="2.5" stroke-miterlimit="10" stroke-linecap="round"/>
<path d="M101.642 272.352C126.967 299.284 160.859 312.428 203.024 302.202" stroke="black" stroke-width="2.5" stroke-miterlimit="10" stroke-linecap="round"/>
<path d="M219.354 153.649C219.354 153.649 231.401 140.344 245.696 154.773" stroke="black" stroke-width="2.5" stroke-miterlimit="10" stroke-linecap="round"/>
<path d="M125.762 168.507C125.762 168.507 132.347 151.373 154.862 159.779" stroke="black" stroke-width="2.5" stroke-miterlimit="10" stroke-linecap="round"/>
<path d="M106.327 67.2318C73.8809 77.3512 17.9293 106.639 51.9554 190.486" stroke="black" stroke-width="2.5" stroke-miterlimit="10" stroke-linecap="round"/>
<path d="M214.83 64.9294C283.123 76.3874 269.497 187.113 269.497 187.113C271.103 209.6 270.166 222.263 262.536 243.493" stroke="black" stroke-width="2.5" stroke-miterlimit="10" stroke-linecap="round"/>
<path d="M210.52 169.524C210.52 169.524 210.52 179.59 219.355 213.054C222.139 223.602 191.299 221.969 191.299 221.969" stroke="black" stroke-width="2.5" stroke-miterlimit="10" stroke-linecap="round"/>
<path d="M178.824 392.822C50.6167 360.188 91.8978 321.477 91.8978 321.477" stroke="black" stroke-width="2.5" stroke-miterlimit="10" stroke-linecap="round"/>
<path d="M212.554 331.355C212.554 331.355 239.004 350.336 194.35 389.02" stroke="black" stroke-width="2.5" stroke-miterlimit="10" stroke-linecap="round"/>
<path d="M73.6915 341.234C73.6915 341.234 60.0383 387.521 194.349 408.403C194.349 408.403 243.286 377.295 234.184 351.862" stroke="black" stroke-width="2.5" stroke-miterlimit="10" stroke-linecap="round"/>
<path d="M191.298 459C191.298 459 190.923 426.982 186.747 420.557" stroke="black" stroke-width="2.5" stroke-miterlimit="10" stroke-linecap="round"/>
<path d="M200.426 417.505C200.426 417.505 214.079 438.252 214.454 459" stroke="black" stroke-width="2.5" stroke-miterlimit="10" stroke-linecap="round"/>
<path d="M80.1976 362.919C80.1976 362.919 8.79908 408.67 1.59766 459" stroke="black" stroke-width="2.5" stroke-miterlimit="10" stroke-linecap="round"/>
<path d="M234.828 362.919C234.828 362.919 314.231 409.045 323.735 459" stroke="black" stroke-width="2.5" stroke-miterlimit="10" stroke-linecap="round"/>
<path d="M76.3961 203.523C76.3961 203.523 41.2992 110.521 100.303 88.14" stroke="black" stroke-width="2.5" stroke-miterlimit="10" stroke-linecap="round"/>
<path d="M115.777 80.9386C115.777 80.9386 188.514 92.0486 181.447 31.1711" stroke="black" stroke-width="2.5" stroke-miterlimit="10" stroke-linecap="round"/>
<path d="M184.979 82.1968C184.979 82.1968 214.829 64.9295 196.116 19.4721" stroke="black" stroke-width="2.5" stroke-miterlimit="10" stroke-linecap="round"/>
<path d="M122.256 64.9295C122.256 64.9295 174.861 55.3722 161.743 1.74969" stroke="black" stroke-width="2.5" stroke-miterlimit="10" stroke-linecap="round"/>
<path d="M212.34 77.5387C212.34 77.5387 211.483 89.5053 226.716 92.0754" stroke="black" stroke-width="2.5" stroke-miterlimit="10" stroke-linecap="round"/>
<path d="M113.984 50.8479C113.984 50.8479 132.082 47.8495 130.422 24.3177" stroke="black" stroke-width="2.5" stroke-miterlimit="10" stroke-linecap="round"/>
</svg>
