<svg width="312" height="396" viewBox="0 0 312 396" fill="none" xmlns="http://www.w3.org/2000/svg">
<path d="M2.7998 398.694C25.3627 345.467 82.3679 307.436 92.3717 298.846C87.8048 263.67 86.7717 230.179 83.3465 212.346C67.9331 219.523 47.9256 213.461 35.4208 201.935C22.9161 190.408 16.1744 163.496 26.8034 150.203C37.4325 136.91 57.9021 130.331 68.0962 143.923C66.8729 127.26 54.2051 84.4445 59.5604 61.1748C68.069 24.2587 156.662 -7.24778 201.707 17.7073C240.933 39.4275 273.418 102.685 262.137 165.915C259.283 181.873 253.846 197.639 244.25 210.715C234.627 223.791 214.891 237.763 198.907 240.645L202.468 300.831C231.99 322.225 285.271 348.321 306.719 398.286L2.7998 398.694Z" fill="white"/>
<path d="M93.7314 213.841C119.448 241.188 153.863 254.536 196.678 244.151" stroke="#231F20" stroke-width="2.5" stroke-miterlimit="10" stroke-linecap="round"/>
<path d="M34.7145 168.58C33.9805 162.083 39.662 156.048 46.1047 154.906C52.5473 153.764 59.1531 156.673 64.019 161.022C68.885 165.399 72.3102 171.081 75.6539 176.708" stroke="#231F20" stroke-width="2.5" stroke-miterlimit="10" stroke-linecap="round"/>
<path d="M53.2559 186.413C56.7898 179.154 62.9334 173.228 70.3004 169.939" stroke="#231F20" stroke-width="2.5" stroke-miterlimit="10" stroke-linecap="round"/>
<path d="M156.961 183.694C156.961 183.694 176.425 198.781 211.003 182.688" stroke="#231F20" stroke-width="2.5" stroke-miterlimit="10" stroke-linecap="round"/>
<path d="M140.078 103.772C141.356 109.807 139.697 115.244 136.354 115.951C133.01 116.658 129.286 112.335 128.035 106.328C126.758 100.293 128.416 94.8559 131.76 94.1491C135.103 93.4423 138.8 97.7374 140.078 103.772Z" fill="#231F20"/>
<path d="M231.363 96.0791C231.798 102.223 229.406 107.388 226.007 107.632C222.609 107.877 219.51 103.093 219.075 96.949C218.641 90.8054 221.033 85.6404 224.431 85.3958C227.829 85.1511 230.928 89.9355 231.363 96.0791Z" fill="#231F20"/>
<path d="M249.251 213.841C259.989 235.344 270.672 244.396 283.204 264.948C295.736 285.472 306.691 307.572 309.845 331.413C312.971 355.253 307.235 381.242 290.218 398.204" stroke="#231F20" stroke-width="2.5" stroke-miterlimit="10" stroke-linecap="round"/>
<path d="M67.688 143.896C116.021 118.751 148.507 61.8816 163.24 8.62778C164.11 5.44723 161.283 2.45697 158.048 3.10939C138.802 6.99673 119.528 11.319 101.587 19.284C81.4432 28.2004 62.822 42.2002 52.2746 61.6641C44.3912 76.2348 41.4553 92.926 38.6281 109.291C27.4826 173.962 16.3099 238.606 5.16437 303.277C2.74498 317.277 0.352791 331.739 3.61489 345.576C6.877 359.412 17.3429 372.543 31.3428 374.228" stroke="#231F20" stroke-width="2.5" stroke-miterlimit="10" stroke-linecap="round"/>
<path d="M249.713 64.8719C248.708 45.2178 236.991 26.1617 218.56 14.1735C204.425 4.98522 149.268 -11.271 167.943 20.1268C180.883 41.9285 223.916 58.2662 249.713 64.8719Z" stroke="#231F20" stroke-width="2.5" stroke-miterlimit="10" stroke-linecap="round"/>
<path d="M66.8994 333.37C81.8507 365.203 160.63 397.335 168.188 396.465C176.343 395.54 183.492 390.702 189.908 385.564C209.399 369.933 223.263 351.774 234.707 329.564" stroke="#231F20" stroke-width="2.5" stroke-miterlimit="10" stroke-linecap="round"/>
<path d="M76.332 321.844C89.5979 352.453 159.488 383.389 166.203 382.574C173.434 381.704 179.795 377.028 185.477 372.08C202.113 357.591 214.129 340.9 224.078 320.621" stroke="#231F20" stroke-width="2.5" stroke-miterlimit="10" stroke-linecap="round"/>
<path d="M121.239 158.222C130.457 158.222 137.93 150.75 137.93 141.531C137.93 132.313 130.457 124.84 121.239 124.84C112.021 124.84 104.548 132.313 104.548 141.531C104.548 150.75 112.021 158.222 121.239 158.222Z" stroke="#231F20" stroke-width="2.5" stroke-miterlimit="10" stroke-linecap="round"/>
<path d="M245.066 141.531C253.398 141.531 260.153 134.777 260.153 126.444C260.153 118.112 253.398 111.357 245.066 111.357C236.733 111.357 229.979 118.112 229.979 126.444C229.979 134.777 236.733 141.531 245.066 141.531Z" stroke="#231F20" stroke-width="2.5" stroke-miterlimit="10" stroke-linecap="round"/>
<path d="M201.134 111.357C201.134 111.357 202.602 125.411 206.897 142.184C211.084 158.44 187.896 149.877 187.896 149.877" stroke="#231F20" stroke-width="2.5" stroke-miterlimit="10" stroke-linecap="round"/>
<path d="M146.303 94.0677C146.303 94.0677 126.948 79.9319 116.21 102.984" stroke="#231F20" stroke-width="2.5" stroke-miterlimit="10" stroke-linecap="round"/>
<path d="M211.031 91.1046C211.031 91.1046 221.823 72.7281 239.547 85.3687" stroke="#231F20" stroke-width="2.5" stroke-miterlimit="10" stroke-linecap="round"/>
</svg>
