<svg width="305" height="404" viewBox="0 0 305 404" fill="none" xmlns="http://www.w3.org/2000/svg">
<path d="M0.788086 406.694C23.351 353.821 80.3561 315.79 90.3599 307.2C85.793 272.023 84.76 238.532 81.3348 220.7C65.9214 227.876 45.9138 221.814 33.4091 210.288C20.9044 198.762 14.1627 171.85 24.7917 158.557C35.4207 145.264 55.8904 138.685 66.0845 152.277C64.8612 135.613 52.1934 92.798 57.5487 69.5284C66.0845 32.6122 154.651 1.10573 199.695 26.0608C238.922 47.781 271.407 111.039 260.125 174.269C257.271 190.226 251.834 205.993 242.238 219.069C232.642 232.144 212.879 246.117 196.895 248.998L200.456 309.184C229.978 330.578 283.259 356.675 304.707 406.286L0.788086 406.694Z" fill="#FFE3E3"/>
<path d="M91.7188 222.195C117.435 249.542 151.85 262.89 194.665 252.505" stroke="black" stroke-width="2.5" stroke-miterlimit="10" stroke-linecap="round"/>
<path d="M32.6725 176.933C31.9385 170.436 37.62 164.401 44.0627 163.259C50.5053 162.118 57.1111 165.026 61.977 169.376C66.843 173.752 70.2683 179.434 73.6119 185.061" stroke="black" stroke-width="2.5" stroke-miterlimit="10" stroke-linecap="round"/>
<path d="M51.2148 194.766C54.7488 187.508 60.8925 181.582 68.2594 178.292" stroke="black" stroke-width="2.5" stroke-miterlimit="10" stroke-linecap="round"/>
<path d="M161.501 189.438C168.868 191.449 178.219 192.401 189.827 191.042" stroke="black" stroke-width="2.5" stroke-miterlimit="10" stroke-linecap="round"/>
<path d="M137.687 110.386C138.557 114.491 136.545 118.378 133.229 119.058C129.912 119.765 126.514 117.019 125.644 112.914C124.774 108.809 126.786 104.922 130.102 104.242C133.419 103.563 136.817 106.281 137.687 110.386Z" fill="black"/>
<path d="M229.106 100.98C229.405 105.221 226.904 108.837 223.506 109.081C220.108 109.326 217.118 106.091 216.819 101.85C216.52 97.6096 219.021 93.9941 222.419 93.7494C225.817 93.5047 228.807 96.7397 229.106 100.98Z" fill="black"/>
<path d="M201.297 123.815C201.297 123.815 201.053 133.438 208.746 147.683C216.738 162.444 187.053 156.79 187.053 156.79" stroke="black" stroke-width="2.5" stroke-miterlimit="10" stroke-linecap="round"/>
<path d="M145.055 101.415C145.055 101.415 128.582 93.7221 112.896 109.108" stroke="black" stroke-width="2.5" stroke-miterlimit="10" stroke-linecap="round"/>
<path d="M209.019 95.299C209.019 95.299 221.143 84.9145 237.535 92.9339" stroke="black" stroke-width="2.5" stroke-miterlimit="10" stroke-linecap="round"/>
<path d="M178.356 18.7482C178.356 18.7482 229.055 30.7364 244.387 75.2913" stroke="black" stroke-width="2.5" stroke-miterlimit="10" stroke-linecap="round"/>
<path d="M150.055 17.5522C150.055 17.5522 78.044 34.053 66.083 152.277" stroke="black" stroke-width="2.5" stroke-miterlimit="10" stroke-linecap="round"/>
<path d="M78.4263 288.85C54.9663 291.161 3.69693 278.901 4.24062 252.478C10.8192 -66.0121 163.921 9.91341 163.921 9.91341C284.346 3.44358 284.917 192.591 292.91 249.243C296.96 277.922 234.436 295.51 214.402 293.091" stroke="black" stroke-width="2.5" stroke-miterlimit="10" stroke-linecap="round"/>
<path d="M78.4248 319.922L143.178 350.232L145.57 322.994" stroke="black" stroke-width="2.5" stroke-miterlimit="10" stroke-linecap="round" stroke-linejoin="round"/>
<path d="M166.774 406.558L163.267 345.366L148.125 304.264L87.1514 277.406" stroke="black" stroke-width="2.5" stroke-miterlimit="10" stroke-linecap="round" stroke-linejoin="round"/>
<path d="M163.268 345.366L169.955 301.681L202.848 283.441L210.106 316.469L185.368 348.438L176.126 312.99" stroke="black" stroke-width="2.5" stroke-miterlimit="10" stroke-linecap="round" stroke-linejoin="round"/>
</svg>
