<svg width="371" height="429" viewBox="0 0 371 429" fill="none" xmlns="http://www.w3.org/2000/svg">
<path d="M50.8945 431.694C73.4574 373.819 130.463 335.788 140.466 327.198C135.899 292.021 134.866 258.53 131.441 240.698C116.028 247.874 96.0203 241.812 83.5156 230.286C71.0108 218.76 64.2692 191.848 74.8982 178.555C85.5272 165.261 105.997 158.683 116.191 172.275C114.968 155.611 102.3 112.796 107.655 89.5263C116.164 52.6102 204.757 21.1037 249.801 46.0588C289.028 67.779 321.513 131.037 310.232 194.267C307.377 210.224 301.941 225.991 292.344 239.067C282.721 252.142 262.986 266.115 247.001 268.996L250.562 329.182C280.084 350.576 333.365 376.673 354.814 431.286L50.8945 431.694Z" fill="white"/>
<path d="M141.826 242.166C167.542 269.513 201.958 282.86 244.773 272.476" stroke="#FF0000" stroke-width="2.5" stroke-miterlimit="10" stroke-linecap="round"/>
<path d="M82.8092 196.931C82.0752 190.434 87.7567 184.399 94.1994 183.258C100.642 182.116 107.248 185.025 112.114 189.374C116.98 193.751 120.405 199.432 123.749 205.059" stroke="#FF0000" stroke-width="2.5" stroke-miterlimit="10" stroke-linecap="round"/>
<path d="M101.351 214.737C104.885 207.479 111.028 201.553 118.395 198.263" stroke="#FF0000" stroke-width="2.5" stroke-miterlimit="10" stroke-linecap="round"/>
<path d="M140.468 327.198L259.589 431.476" stroke="#FF0000" stroke-width="2.5" stroke-miterlimit="10" stroke-linecap="round"/>
<path d="M250.564 329.182L217.698 394.805" stroke="#FF0000" stroke-width="2.5" stroke-miterlimit="10" stroke-linecap="round"/>
<path d="M197.337 136.827C197.337 136.827 179.178 121.196 166.619 143.297" stroke="#FF0000" stroke-width="2.5" stroke-miterlimit="10" stroke-linecap="round"/>
<path d="M259.072 133.592C259.072 133.592 269.864 115.215 287.588 127.856" stroke="#FF0000" stroke-width="2.5" stroke-miterlimit="10" stroke-linecap="round"/>
<path d="M296.805 99.8566C268.86 99.2858 211.094 33.1466 211.094 33.1466C211.094 33.1466 249.26 25.3176 273.346 52.2843C297.404 79.251 296.805 99.8566 296.805 99.8566Z" stroke="#FF0000" stroke-width="2.5" stroke-miterlimit="10" stroke-linecap="round"/>
<path d="M116.219 172.275C200.191 111.219 211.092 33.1464 211.092 33.1464C211.092 33.1464 158.654 18.766 122.091 59.8685C98.006 86.9167 99.0934 158.493 99.0934 158.493" stroke="#FF0000" stroke-width="2.5" stroke-miterlimit="10" stroke-linecap="round" stroke-linejoin="round"/>
<path d="M340.653 402.634C345.736 393.99 348.645 383.931 348.645 373.166C348.645 358.487 343.181 345.085 334.21 334.837C355.522 320.647 369.577 296.398 369.577 268.861C369.577 244.911 358.92 223.463 342.148 208.92C350.276 198.889 355.142 186.166 355.142 172.248C355.142 153.301 346.062 136.501 332.062 125.845C331.002 57.1774 257.306 1.72168 188.448 1.72168C120.189 1.72168 82.1854 56.1716 80.9621 123.996C55.6536 130.357 36.8965 153.192 36.8965 180.485C36.8965 187.607 38.2286 194.403 40.5664 200.71C17.3511 214.52 1.80176 239.855 1.80176 268.834C1.80176 299.497 19.2268 326.083 44.7256 339.241C37.8752 348.809 33.7975 360.471 33.7975 373.112C33.7975 396.056 47.0362 415.9 66.3098 425.414" stroke="#FF0000" stroke-width="2.5" stroke-miterlimit="10" stroke-linecap="round"/>
<path d="M232.814 223.191C237.137 223.409 252.115 223.273 257.335 222.647" stroke="#FF0000" stroke-width="2.5" stroke-miterlimit="10" stroke-linecap="round"/>
<path d="M244.773 145.907C244.773 145.907 245.697 152.458 259.589 183.149C263.775 192.419 230.746 188.396 230.746 188.396" stroke="#FF0000" stroke-width="2.5" stroke-miterlimit="10" stroke-linecap="round"/>
<path d="M189.346 140.225C190.27 144.547 188.286 148.598 184.969 149.305C181.653 150.011 178.2 147.075 177.303 142.78C176.379 138.458 178.363 134.408 181.68 133.701C184.996 132.994 188.422 135.903 189.346 140.225Z" fill="#FF0000"/>
<path d="M279.461 132.532C279.787 137.207 277.313 141.176 273.915 141.394C270.517 141.638 267.5 138.05 267.173 133.374C266.847 128.699 269.321 124.73 272.719 124.512C276.117 124.295 279.135 127.883 279.461 132.532Z" fill="#FF0000"/>
<path d="M296.805 247.358C296.805 247.358 300.474 278.701 287.644 292.565" stroke="#FF0000" stroke-width="2.5" stroke-miterlimit="10" stroke-linecap="round" stroke-linejoin="round"/>
<path d="M95.125 243.77C95.125 243.77 103.987 291.94 149.058 285.389" stroke="#FF0000" stroke-width="2.5" stroke-miterlimit="10" stroke-linecap="round"/>
<path d="M85.2294 238.632C85.2294 238.632 94.9885 263.804 79.0586 270.492" stroke="#FF0000" stroke-width="2.5" stroke-miterlimit="10" stroke-linecap="round"/>
<path d="M308.956 222.974C308.956 222.974 295.853 265.87 321.542 273.074" stroke="#FF0000" stroke-width="2.5" stroke-miterlimit="10" stroke-linecap="round" stroke-linejoin="round"/>
</svg>
