<svg width="311" height="402" viewBox="0 0 311 402" fill="none" xmlns="http://www.w3.org/2000/svg">
<path d="M0.896484 402C23.8872 343.028 81.9732 304.276 92.1667 295.523C87.5131 259.679 86.4605 225.554 82.9704 207.383C67.2647 214.695 46.8778 208.518 34.136 196.774C21.3942 185.029 14.5247 157.606 25.3552 144.061C36.1858 130.516 57.0436 123.813 67.4309 137.663C64.4948 121.154 53.2764 77.056 58.7332 53.3451C67.4309 15.7844 157.704 -16.3194 203.602 9.08113C243.573 31.2131 276.674 95.6701 265.178 160.099C262.27 176.359 256.73 192.425 246.952 205.748C237.174 219.072 217.036 233.309 200.749 236.246L204.378 297.572C234.46 319.372 288.751 345.964 310.606 401.612L0.896484 402Z" fill="#FF0000"/>
<path d="M280.054 119.464C286.258 122.151 290.524 128.328 291.965 134.948C293.405 141.568 292.297 148.493 290.053 154.892C286.563 164.781 280.331 173.672 272.215 180.32C268.614 183.284 263.628 185.888 259.445 183.755C256.121 182.065 254.792 178.049 254.072 174.392C251.135 159.684 253.324 107.941 280.054 119.464Z" fill="#FF0000"/>
<path d="M141.441 100.641C142.198 104.175 139.79 107.791 135.951 108.601C132.114 109.412 128.468 107.093 127.709 103.552C126.951 100.018 129.359 96.402 133.199 95.5911C137.036 94.7808 140.682 97.0992 141.441 100.641Z" fill="black" stroke="black" stroke-width="2.5"/>
<path d="M234.404 91.9383C234.69 95.8711 231.858 99.1841 228.251 99.4368C224.648 99.6893 221.395 96.8082 221.109 92.8649C220.823 88.9321 223.654 85.6191 227.262 85.3664C230.865 85.1139 234.117 87.995 234.404 91.9383Z" fill="black" stroke="black" stroke-width="2.5"/>
<path d="M158.867 179.877C158.867 179.877 177.038 197.189 213.768 184.475" stroke="black" stroke-width="2.5" stroke-miterlimit="10" stroke-linecap="round"/>
<path d="M33.4169 162.786C32.669 156.166 38.4582 150.017 45.023 148.853C51.5878 147.69 58.3188 150.654 63.277 155.086C68.2353 159.545 71.7254 165.335 75.1325 171.068" stroke="black" stroke-width="2.5" stroke-miterlimit="10" stroke-linecap="round"/>
<path d="M52.2803 180.957C55.8812 173.561 62.1413 167.523 69.6479 164.171" stroke="black" stroke-width="2.5" stroke-miterlimit="10" stroke-linecap="round"/>
<path d="M93.5518 208.906C119.756 236.772 154.823 250.372 198.45 239.791" stroke="black" stroke-width="2.5" stroke-miterlimit="10" stroke-linecap="round"/>
<path d="M215.346 86.086C215.346 86.086 227.811 72.3193 242.602 87.2494" stroke="black" stroke-width="2.5" stroke-miterlimit="10" stroke-linecap="round"/>
<path d="M118.509 101.432C118.509 101.432 125.323 83.7038 148.618 92.4015" stroke="black" stroke-width="2.5" stroke-miterlimit="10" stroke-linecap="round"/>
<path d="M72.4717 145.613C72.4717 145.613 103.689 216.302 142.801 223.725C168.257 228.573 174.406 216.662 186.317 217.05C198.228 217.438 198.81 226.468 215.346 221.759C231.883 217.05 252.131 201.012 260.026 179.046C267.92 157.08 268.89 143.978 267.228 120.711" stroke="black" stroke-width="2.5" stroke-miterlimit="10" stroke-linecap="round"/>
<path d="M206.207 102.512C206.207 102.512 206.207 112.927 215.348 147.551C218.228 158.465 186.318 156.775 186.318 156.775" stroke="black" stroke-width="2.5" stroke-miterlimit="10" stroke-linecap="round"/>
<path d="M92.167 295.523C92.167 295.523 157.206 352.944 204.35 297.545" stroke="black" stroke-width="2.5" stroke-miterlimit="10" stroke-linecap="round"/>
<path d="M79.6182 305.356C79.6182 305.356 146.817 381.835 219.834 308.597" stroke="black" stroke-width="2.5" stroke-miterlimit="10" stroke-linecap="round"/>
<path d="M163.41 80.6847C166.54 89.3547 164.518 108.107 161.36 115.614C156.928 126.167 96.8476 135.696 89.6457 123.148C84.7151 114.589 79.286 95.7533 82.6931 91.1828C88.5654 83.2884 158.313 66.5579 163.41 80.6847Z" stroke="black" stroke-width="2.5" stroke-miterlimit="10" stroke-linecap="round"/>
<path d="M271.549 73.7597C273.128 81.3771 271.134 96.1133 267.921 104.783C264.707 113.426 216.316 113.758 211.275 110.019C203.685 104.423 204.682 83.6762 206.067 75.2001C207.231 68.0259 270.386 68.0536 271.549 73.7597Z" stroke="black" stroke-width="2.5" stroke-miterlimit="10" stroke-linecap="round"/>
<path d="M164.962 92.8448C174.712 78.441 192.606 77.1392 205.099 89.2162" stroke="black" stroke-width="2.5" stroke-miterlimit="10" stroke-linecap="round"/>
<path d="M130.197 191.538C130.197 191.538 145.127 158.16 189.474 166.027C233.849 173.866 235.677 195.472 235.677 195.472" stroke="black" stroke-width="2.5" stroke-miterlimit="10" stroke-linecap="round"/>
<path d="M169.255 199.183C169.255 199.183 189.669 204.89 202.633 199.183" stroke="black" stroke-width="2.5" stroke-miterlimit="10" stroke-linecap="round"/>
<path d="M81.6416 184.503C81.6416 184.503 97.1534 228.6 111.225 243.364C133.578 266.77 154.685 274.111 182.939 274.111C211.193 274.111 262.492 251.203 267.921 178.575" stroke="black" stroke-width="2.5" stroke-miterlimit="10" stroke-linecap="round"/>
</svg>
