<svg width="24" height="21" viewBox="0 0 24 21" fill="none" xmlns="http://www.w3.org/2000/svg">
<path d="M17 19.0745V17.0745C17 14.8653 15.2091 13.0745 13 13.0745H5C2.79086 13.0745 1 14.8653 1 17.0745V19.0745" stroke="#CB1878" stroke-width="2" stroke-linecap="round" stroke-linejoin="round"/>
<path fill-rule="evenodd" clip-rule="evenodd" d="M9 9.07446C11.2091 9.07446 13 7.2836 13 5.07446C13 2.86532 11.2091 1.07446 9 1.07446C6.79086 1.07446 5 2.86532 5 5.07446C5 7.2836 6.79086 9.07446 9 9.07446Z" stroke="#CB1878" stroke-width="2" stroke-linecap="round" stroke-linejoin="round"/>
<path d="M23 19.0746V17.0746C22.9986 15.2517 21.765 13.6603 20 13.2046" stroke="#CB1878" stroke-width="2" stroke-linecap="round" stroke-linejoin="round"/>
<path d="M16 1.20459C17.7699 1.65776 19.0078 3.25258 19.0078 5.07959C19.0078 6.9066 17.7699 8.50142 16 8.95459" stroke="#CB1878" stroke-width="2" stroke-linecap="round" stroke-linejoin="round"/>
</svg>
