<svg width="41" height="41" viewBox="0 0 41 41" fill="none" xmlns="http://www.w3.org/2000/svg">
<circle cx="20.0605" cy="20.4043" r="20" fill="#4DBFFF"/>
<path d="M23.4547 13.9131L21.6939 13.9102C19.7156 13.9102 18.4372 15.2575 18.4372 17.3429V18.9256H16.6668C16.5138 18.9256 16.3899 19.053 16.3899 19.2102V21.5033C16.3899 21.6605 16.5139 21.7878 16.6668 21.7878H18.4372V27.5742C18.4372 27.7313 18.5611 27.8586 18.7141 27.8586H21.024C21.177 27.8586 21.3009 27.7312 21.3009 27.5742V21.7878H23.371C23.5239 21.7878 23.6478 21.6605 23.6478 21.5033L23.6487 19.2102C23.6487 19.1347 23.6194 19.0624 23.5676 19.009C23.5157 18.9556 23.4451 18.9256 23.3717 18.9256H21.3009V17.5839C21.3009 16.939 21.4505 16.6117 22.2683 16.6117L23.4544 16.6112C23.6073 16.6112 23.7312 16.4838 23.7312 16.3268V14.1975C23.7312 14.0406 23.6074 13.9133 23.4547 13.9131Z" fill="#CB1878"/>
</svg>
