<svg width="41" height="41" viewBox="0 0 41 41" fill="none" xmlns="http://www.w3.org/2000/svg">
<circle cx="20.2668" cy="20.4043" r="20" fill="#FFD600"/>
<path fill-rule="evenodd" clip-rule="evenodd" d="M27.8143 14.3233C28.6405 14.5458 29.292 15.1972 29.5144 16.0235C29.9276 17.5329 29.9118 20.6791 29.9118 20.6791C29.9118 20.6791 29.9118 23.8093 29.5145 25.3188C29.292 26.145 28.6406 26.7965 27.8143 27.0189C26.3048 27.4163 20.2668 27.4163 20.2668 27.4163C20.2668 27.4163 14.2446 27.4163 12.7193 27.0032C11.8929 26.7806 11.2416 26.1291 11.019 25.3029C10.6218 23.8093 10.6218 20.6632 10.6218 20.6632C10.6218 20.6632 10.6218 17.5329 11.019 16.0235C11.2414 15.1973 11.9088 14.5299 12.7192 14.3075C14.2287 13.9102 20.2666 13.9102 20.2666 13.9102C20.2666 13.9102 26.3048 13.9102 27.8143 14.3233ZM23.3652 20.6642L18.3442 23.5561V17.7723L23.3652 20.6642Z" fill="#CB1878"/>
</svg>
