<svg width="41" height="40" viewBox="0 0 41 40" fill="none" xmlns="http://www.w3.org/2000/svg">
<path d="M0.0605469 20C0.0605469 8.95467 9.01521 0 20.0605 0C31.1059 0 40.0606 8.95467 40.0606 20C40.0606 31.0453 31.1059 40 20.0605 40C9.01521 40 0.0605469 31.0453 0.0605469 20Z" fill="#FFD600"/>
<path d="M6.29932 20.0005C6.29932 12.4006 12.4607 6.23926 20.0606 6.23926C27.6605 6.23926 33.8219 12.4006 33.8219 20.0005C33.8219 27.6004 27.6605 33.7618 20.0606 33.7618C12.4607 33.7618 6.29932 27.6004 6.29932 20.0005Z" fill="#4DBFFF"/>
<path d="M13.2024 19.9999C13.2024 16.2123 16.2731 13.1416 20.0606 13.1416C23.8482 13.1416 26.9189 16.2123 26.9189 19.9999C26.9189 23.7874 23.8482 26.8581 20.0606 26.8581C16.2731 26.8581 13.2024 23.7874 13.2024 19.9999Z" fill="#CB1878"/>
</svg>
