<svg width="33" height="32" viewBox="0 0 33 32" fill="none" xmlns="http://www.w3.org/2000/svg">
<path d="M19.5284 11.6991H18.0284C18.0284 12.5275 18.6999 13.1991 19.5284 13.1991V11.6991ZM15.2071 1.61621V0.116211C14.6144 0.116211 14.0772 0.465311 13.8364 1.007L15.2071 1.61621ZM9.4455 14.5799L8.07478 13.9707C7.98954 14.1625 7.9455 14.37 7.9455 14.5799H9.4455ZM9.4455 30.4244H7.9455C7.9455 31.2528 8.61707 31.9244 9.4455 31.9244V30.4244ZM25.6933 30.4244L25.7103 28.9245C25.7046 28.9244 25.699 28.9244 25.6933 28.9244V30.4244ZM28.5741 27.9757L27.0915 27.7484L27.0911 27.7508L28.5741 27.9757ZM30.5619 15.012L32.0446 15.2394L32.0449 15.2371L30.5619 15.012ZM29.8876 12.6894L31.0195 11.7051V11.7051L29.8876 12.6894ZM27.6811 11.6991V13.1991C27.6867 13.1991 27.6924 13.199 27.6981 13.199L27.6811 11.6991ZM9.44546 30.4244V31.9244C10.2739 31.9244 10.9455 31.2528 10.9455 30.4244H9.44546ZM9.44546 14.5799H10.9455C10.9455 13.7515 10.2739 13.0799 9.44546 13.0799V14.5799ZM21.0284 11.6991V5.93744H18.0284V11.6991H21.0284ZM21.0284 5.93744C21.0284 2.72246 18.4221 0.116211 15.2071 0.116211V3.11621C16.7653 3.11621 18.0284 4.37932 18.0284 5.93744H21.0284ZM13.8364 1.007L8.07478 13.9707L10.8162 15.1891L16.5779 2.22542L13.8364 1.007ZM7.9455 14.5799V30.4244H10.9455V14.5799H7.9455ZM9.4455 31.9244H25.6933V28.9244H9.4455V31.9244ZM25.6764 31.9243C27.8608 31.949 29.7296 30.3605 30.0572 28.2006L27.0911 27.7508C26.9879 28.4316 26.3988 28.9323 25.7103 28.9245L25.6764 31.9243ZM30.0568 28.2031L32.0446 15.2394L29.0792 14.7847L27.0915 27.7484L30.0568 28.2031ZM32.0449 15.2371C32.2378 13.9664 31.8629 12.675 31.0195 11.7051L28.7557 13.6736C29.0215 13.9794 29.1397 14.3864 29.0789 14.7869L32.0449 15.2371ZM31.0195 11.7051C30.1761 10.7352 28.9493 10.1846 27.6641 10.1992L27.6981 13.199C28.1032 13.1944 28.4898 13.3679 28.7557 13.6737L31.0195 11.7051ZM27.6811 10.1991H19.5284V13.1991H27.6811V10.1991ZM9.44546 28.9244H5.12423V31.9244H9.44546V28.9244ZM5.12423 28.9244C4.36162 28.9244 3.74341 28.3062 3.74341 27.5436H0.743408C0.743408 29.963 2.70477 31.9244 5.12423 31.9244V28.9244ZM3.74341 27.5436V17.4607H0.743408V27.5436H3.74341ZM3.74341 17.4607C3.74341 16.6981 4.36162 16.0799 5.12423 16.0799V13.0799C2.70477 13.0799 0.743408 15.0413 0.743408 17.4607H3.74341ZM5.12423 16.0799H9.44546V13.0799H5.12423V16.0799ZM7.94546 14.5799V30.4244H10.9455V14.5799H7.94546Z" fill="#CB1878"/>
</svg>
