<svg width="40" height="40" viewBox="0 0 40 40" fill="none" xmlns="http://www.w3.org/2000/svg">
<path d="M1.5 20C1.5 9.7831 9.7831 1.5 20 1.5C30.2169 1.5 38.5 9.7831 38.5 20C38.5 30.2169 30.2169 38.5 20 38.5C9.7831 38.5 1.5 30.2169 1.5 20Z" stroke="#FFD600" stroke-width="3"/>
<path d="M7.73877 20.0001C7.73877 13.2286 13.2286 7.73877 20.0001 7.73877C26.7715 7.73877 32.2613 13.2286 32.2613 20.0001C32.2613 26.7715 26.7715 32.2613 20.0001 32.2613C13.2286 32.2613 7.73877 26.7715 7.73877 20.0001Z" stroke="#4DBFFF" stroke-width="3"/>
<path d="M14.6418 20.0001C14.6418 17.0409 17.0409 14.6418 20.0001 14.6418C22.9593 14.6418 25.3583 17.0409 25.3583 20.0001C25.3583 22.9593 22.9593 25.3583 20.0001 25.3583C17.0409 25.3583 14.6418 22.9593 14.6418 20.0001Z" stroke="#CB1878" stroke-width="3"/>
</svg>
