<svg width="30" height="25" viewBox="0 0 30 25" fill="none" xmlns="http://www.w3.org/2000/svg">
<path d="M28.5932 23.3896L26.6889 18.3144C27.3453 17.1404 27.715 15.7908 27.715 14.3486C27.715 9.84668 24.0635 6.19519 19.5616 6.19519C15.0596 6.19519 11.4081 9.84668 11.4081 14.3486C11.4081 18.8506 15.0596 22.5021 19.5616 22.5021C21.0037 22.5021 22.3534 22.1231 23.5274 21.476L28.5932 23.3896Z" stroke="#CB1878" stroke-width="2" stroke-miterlimit="10" stroke-linejoin="round"/>
<path d="M1.64612 18.1944L3.55044 13.1193C2.8941 11.9452 2.52432 10.5956 2.52432 9.15346C2.52432 4.65149 6.17582 1 10.6778 1C15.1797 1 18.8405 4.65149 18.8405 9.15346C18.8405 13.6554 15.189 17.3162 10.6778 17.3162C9.23567 17.3162 7.88601 16.9371 6.71198 16.29L1.64612 18.1944Z" fill="white" stroke="#CB1878" stroke-width="2" stroke-miterlimit="10" stroke-linejoin="round"/>
</svg>
