<svg width="21" height="25" viewBox="0 0 21 25" fill="none" xmlns="http://www.w3.org/2000/svg">
<path d="M7.56515 4.00304C7.56515 5.57127 6.30003 6.83639 4.7318 6.83639C3.16356 6.83639 1.89844 5.57127 1.89844 4.00304C1.89844 2.4348 3.16356 1.16968 4.7318 1.16968C6.30003 1.16968 7.56515 2.4348 7.56515 4.00304Z" stroke="#FFC700" stroke-width="2" stroke-miterlimit="10" stroke-linecap="round" stroke-linejoin="round"/>
<path d="M19.9792 20.173C19.9792 21.7412 18.7141 23.0063 17.1459 23.0063C15.5776 23.0063 14.3125 21.7412 14.3125 20.173C14.3125 18.6048 15.5776 17.3396 17.1459 17.3396C18.7141 17.3396 19.9792 18.6048 19.9792 20.173Z" stroke="#FFC700" stroke-width="2" stroke-miterlimit="10" stroke-linecap="round" stroke-linejoin="round"/>
<path d="M7.56491 4.00314H15.9332C18.1603 4.00314 19.979 5.80858 19.979 8.04891C19.979 10.2761 18.1735 12.0947 15.9332 12.0947H5.94396C3.71681 12.0947 1.89819 13.9001 1.89819 16.1405C1.89819 18.3676 3.70363 20.1862 5.94396 20.1862H10.4905" stroke="#FFC700" stroke-width="2" stroke-miterlimit="10" stroke-linecap="round" stroke-linejoin="round"/>
<path d="M7.88135 16.7597L11.2946 20.1729L7.88135 23.5862" stroke="#FFC700" stroke-width="2" stroke-miterlimit="10" stroke-linecap="round" stroke-linejoin="round"/>
</svg>
