<svg width="20" height="22" viewBox="0 0 20 22" fill="none" xmlns="http://www.w3.org/2000/svg">
<path fill-rule="evenodd" clip-rule="evenodd" d="M15.7717 7.04801C17.3365 7.04801 18.605 5.77949 18.605 4.21468C18.605 2.64987 17.3365 1.38135 15.7717 1.38135C14.2069 1.38135 12.9384 2.64987 12.9384 4.21468C12.9384 5.77949 14.2069 7.04801 15.7717 7.04801Z" stroke="#18ACFF" stroke-width="2" stroke-linecap="round" stroke-linejoin="round"/>
<path fill-rule="evenodd" clip-rule="evenodd" d="M4.43844 13.6591C6.00324 13.6591 7.27177 12.3906 7.27177 10.8258C7.27177 9.26096 6.00324 7.99243 4.43844 7.99243C2.87363 7.99243 1.6051 9.26096 1.6051 10.8258C1.6051 12.3906 2.87363 13.6591 4.43844 13.6591Z" stroke="#18ACFF" stroke-width="2" stroke-linecap="round" stroke-linejoin="round"/>
<path fill-rule="evenodd" clip-rule="evenodd" d="M15.7717 20.2702C17.3365 20.2702 18.605 19.0017 18.605 17.4368C18.605 15.872 17.3365 14.6035 15.7717 14.6035C14.2069 14.6035 12.9384 15.872 12.9384 17.4368C12.9384 19.0017 14.2069 20.2702 15.7717 20.2702Z" stroke="#18ACFF" stroke-width="2" stroke-linecap="round" stroke-linejoin="round"/>
<path d="M6.88452 12.252L13.3351 16.0108" stroke="#18ACFF" stroke-width="2" stroke-linecap="round" stroke-linejoin="round"/>
<path d="M13.3256 5.64075L6.88452 9.39964" stroke="#18ACFF" stroke-width="2" stroke-linecap="round" stroke-linejoin="round"/>
</svg>
