<svg width="25" height="20" viewBox="0 0 25 20" fill="none" xmlns="http://www.w3.org/2000/svg">
<path d="M17.2093 18.7671V16.8056C17.2093 14.639 15.4529 12.8826 13.2863 12.8826H5.44033C3.27372 12.8826 1.51733 14.639 1.51733 16.8056V18.7671" stroke="#18ACFF" stroke-width="2" stroke-linecap="round" stroke-linejoin="round"/>
<path fill-rule="evenodd" clip-rule="evenodd" d="M9.36318 8.95964C11.5298 8.95964 13.2862 7.20325 13.2862 5.03664C13.2862 2.87003 11.5298 1.11365 9.36318 1.11365C7.19657 1.11365 5.44019 2.87003 5.44019 5.03664C5.44019 7.20325 7.19657 8.95964 9.36318 8.95964Z" stroke="#18ACFF" stroke-width="2" stroke-linecap="round" stroke-linejoin="round"/>
<path d="M23.0937 18.7671V16.8056C23.0924 15.0178 21.8825 13.457 20.1515 13.0101" stroke="#18ACFF" stroke-width="2" stroke-linecap="round" stroke-linejoin="round"/>
<path d="M16.2285 1.24109C17.9644 1.68553 19.1785 3.24965 19.1785 5.04149C19.1785 6.83333 17.9644 8.39745 16.2285 8.84189" stroke="#18ACFF" stroke-width="2" stroke-linecap="round" stroke-linejoin="round"/>
</svg>
