<svg width="21" height="21" viewBox="0 0 21 21" fill="none" xmlns="http://www.w3.org/2000/svg">
<path fill-rule="evenodd" clip-rule="evenodd" d="M1.82538 3.00977C1.82538 1.9052 2.72081 1.00977 3.82538 1.00977H17.8254C18.9299 1.00977 19.8254 1.9052 19.8254 3.00977V17.0098C19.8254 18.1143 18.9299 19.0098 17.8254 19.0098H3.82538C2.72081 19.0098 1.82538 18.1143 1.82538 17.0098V3.00977Z" stroke="#CB1878" stroke-width="2" stroke-linecap="round" stroke-linejoin="round"/>
<path fill-rule="evenodd" clip-rule="evenodd" d="M7.32538 8.00977C8.15381 8.00977 8.82538 7.33819 8.82538 6.50977C8.82538 5.68134 8.15381 5.00977 7.32538 5.00977C6.49695 5.00977 5.82538 5.68134 5.82538 6.50977C5.82538 7.33819 6.49695 8.00977 7.32538 8.00977Z" stroke="#CB1878" stroke-width="2" stroke-linecap="round" stroke-linejoin="round"/>
<path d="M19.8254 13.0098L14.8254 8.00977L3.82538 19.0098" stroke="#CB1878" stroke-width="2" stroke-linecap="round" stroke-linejoin="round"/>
</svg>
