<svg width="25" height="19" viewBox="0 0 25 19" fill="none" xmlns="http://www.w3.org/2000/svg">
<path d="M23.225 2.8321C21.7518 4.30535 19.3634 4.30535 17.8901 2.8321C16.4169 1.35886 14.0285 1.35886 12.5552 2.8321C11.082 4.30535 8.69355 4.30535 7.22031 2.8321C5.74662 1.35886 3.35776 1.35886 1.88452 2.8321" stroke="#FFD600" stroke-width="2" stroke-miterlimit="10" stroke-linecap="round" stroke-linejoin="round"/>
<path d="M23.2251 9.68211C21.7519 11.1554 19.3634 11.1554 17.8902 9.68211C16.417 8.20887 14.0285 8.20887 12.5553 9.68211C11.0821 11.1554 8.69364 11.1554 7.2204 9.68211C5.74716 8.20887 3.35874 8.20887 1.8855 9.68211" stroke="#FFD600" stroke-width="2" stroke-miterlimit="10" stroke-linecap="round" stroke-linejoin="round"/>
<path d="M23.2251 16.5326C21.7519 18.0058 19.3634 18.0058 17.8902 16.5326C16.417 15.0594 14.0285 15.0594 12.5553 16.5326C11.0821 18.0058 8.69364 18.0058 7.2204 16.5326C5.74716 15.0594 3.35874 15.0594 1.8855 16.5326" stroke="#FFD600" stroke-width="2" stroke-miterlimit="10" stroke-linecap="round" stroke-linejoin="round"/>
</svg>
