<svg width="22" height="23" viewBox="0 0 22 23" fill="none" xmlns="http://www.w3.org/2000/svg">
<path fill-rule="evenodd" clip-rule="evenodd" d="M10.8761 21.1284C16.2311 21.1284 20.5721 16.659 20.5721 11.1457C20.5721 5.63237 16.2311 1.16296 10.8761 1.16296C5.5212 1.16296 1.18018 5.63237 1.18018 11.1457C1.18018 16.659 5.5212 21.1284 10.8761 21.1284Z" stroke="#FFC700" stroke-width="2" stroke-linecap="round" stroke-linejoin="round"/>
<path fill-rule="evenodd" clip-rule="evenodd" d="M10.8759 17.1353C14.0889 17.1353 16.6935 14.4536 16.6935 11.1456C16.6935 7.83765 14.0889 5.15601 10.8759 5.15601C7.66297 5.15601 5.05835 7.83765 5.05835 11.1456C5.05835 14.4536 7.66297 17.1353 10.8759 17.1353Z" stroke="#FFC700" stroke-width="2" stroke-linecap="round" stroke-linejoin="round"/>
<path fill-rule="evenodd" clip-rule="evenodd" d="M10.8762 13.1421C11.9472 13.1421 12.8154 12.2482 12.8154 11.1456C12.8154 10.0429 11.9472 9.14905 10.8762 9.14905C9.80522 9.14905 8.93701 10.0429 8.93701 11.1456C8.93701 12.2482 9.80522 13.1421 10.8762 13.1421Z" stroke="#FFC700" stroke-width="2" stroke-linecap="round" stroke-linejoin="round"/>
</svg>
