<svg width="21" height="21" viewBox="0 0 21 21" fill="none" xmlns="http://www.w3.org/2000/svg">
<path d="M9.01481 11.8484C9.80131 12.8999 11.0057 13.5579 12.3154 13.6517C13.6251 13.7455 14.911 13.2658 15.8393 12.3372L18.5547 9.62186C20.2697 7.84613 20.2452 5.02352 18.4995 3.27786C16.7539 1.53221 13.9313 1.50768 12.1555 3.22274L10.5987 4.77047" stroke="#CB1878" stroke-width="2" stroke-linecap="round" stroke-linejoin="round"/>
<path d="M12.6352 10.0382C11.8487 8.98678 10.6443 8.32876 9.33459 8.23496C8.02487 8.14117 6.73899 8.62084 5.81068 9.54948L3.09536 12.2648C1.3803 14.0405 1.40483 16.8631 3.15048 18.6088C4.89614 20.3545 7.71875 20.379 9.49447 18.6639L11.0422 17.1162" stroke="#CB1878" stroke-width="2" stroke-linecap="round" stroke-linejoin="round"/>
</svg>
