<svg width="21" height="23" viewBox="0 0 21 23" fill="none" xmlns="http://www.w3.org/2000/svg">
<path fill-rule="evenodd" clip-rule="evenodd" d="M16.504 7.85468C18.129 7.85468 19.4463 6.53739 19.4463 4.91243C19.4463 3.28747 18.129 1.97018 16.504 1.97018C14.8791 1.97018 13.5618 3.28747 13.5618 4.91243C13.5618 6.53739 14.8791 7.85468 16.504 7.85468Z" stroke="#FFC700" stroke-width="2" stroke-linecap="round" stroke-linejoin="round"/>
<path fill-rule="evenodd" clip-rule="evenodd" d="M4.73497 14.72C6.35993 14.72 7.67722 13.4027 7.67722 11.7777C7.67722 10.1528 6.35993 8.83548 4.73497 8.83548C3.11001 8.83548 1.79272 10.1528 1.79272 11.7777C1.79272 13.4027 3.11001 14.72 4.73497 14.72Z" stroke="#FFC700" stroke-width="2" stroke-linecap="round" stroke-linejoin="round"/>
<path fill-rule="evenodd" clip-rule="evenodd" d="M16.504 21.5853C18.129 21.5853 19.4463 20.268 19.4463 18.643C19.4463 17.0181 18.129 15.7008 16.504 15.7008C14.8791 15.7008 13.5618 17.0181 13.5618 18.643C13.5618 20.268 14.8791 21.5853 16.504 21.5853Z" stroke="#FFC700" stroke-width="2" stroke-linecap="round" stroke-linejoin="round"/>
<path d="M7.27515 13.2586L13.9737 17.162" stroke="#FFC700" stroke-width="2" stroke-linecap="round" stroke-linejoin="round"/>
<path d="M13.9639 6.39337L7.27515 10.2968" stroke="#FFC700" stroke-width="2" stroke-linecap="round" stroke-linejoin="round"/>
</svg>
