<svg width="50" height="50" viewBox="0 0 50 50" fill="none" xmlns="http://www.w3.org/2000/svg">
<rect width="50" height="50" rx="25" fill="#FF0000"/>
<path d="M29.6882 13.5H20.3919C16.6138 13.5 13.54 16.5737 13.54 20.3518V29.6482C13.54 33.4263 16.6138 36.5 20.3919 36.5H29.6882C33.4663 36.5 36.54 33.4263 36.54 29.6482V20.3518C36.54 16.5737 33.4663 13.5 29.6882 13.5ZM34.2262 29.6482C34.2262 32.1544 32.1945 34.1862 29.6882 34.1862H20.3919C17.8856 34.1862 15.8538 32.1544 15.8538 29.6482V20.3518C15.8538 17.8455 17.8856 15.8138 20.3919 15.8138H29.6882C32.1945 15.8138 34.2262 17.8455 34.2262 20.3518V29.6482Z" fill="white"/>
<path d="M29.6882 13.5H20.3919C16.6138 13.5 13.54 16.5737 13.54 20.3518V29.6482C13.54 33.4263 16.6138 36.5 20.3919 36.5H29.6882C33.4663 36.5 36.54 33.4263 36.54 29.6482V20.3518C36.54 16.5737 33.4663 13.5 29.6882 13.5ZM34.2262 29.6482C34.2262 32.1544 32.1945 34.1862 29.6882 34.1862H20.3919C17.8856 34.1862 15.8538 32.1544 15.8538 29.6482V20.3518C15.8538 17.8455 17.8856 15.8138 20.3919 15.8138H29.6882C32.1945 15.8138 34.2262 17.8455 34.2262 20.3518V29.6482Z" fill="white"/>
<path d="M25.0404 19.0514C21.7603 19.0514 19.0918 21.7199 19.0918 25C19.0918 28.28 21.7603 30.9486 25.0404 30.9486C28.3205 30.9486 30.989 28.28 30.989 25C30.989 21.7199 28.3205 19.0514 25.0404 19.0514ZM25.0404 28.6348C23.0329 28.6348 21.4056 27.0075 21.4056 25C21.4056 22.9925 23.033 21.3652 25.0404 21.3652C27.0479 21.3652 28.6752 22.9925 28.6752 25C28.6752 27.0074 27.0478 28.6348 25.0404 28.6348Z" fill="white"/>
<path d="M25.0404 19.0514C21.7603 19.0514 19.0918 21.7199 19.0918 25C19.0918 28.28 21.7603 30.9486 25.0404 30.9486C28.3205 30.9486 30.989 28.28 30.989 25C30.989 21.7199 28.3205 19.0514 25.0404 19.0514ZM25.0404 28.6348C23.0329 28.6348 21.4056 27.0075 21.4056 25C21.4056 22.9925 23.033 21.3652 25.0404 21.3652C27.0479 21.3652 28.6752 22.9925 28.6752 25C28.6752 27.0074 27.0478 28.6348 25.0404 28.6348Z" fill="white"/>
<path d="M31.0006 20.5212C31.7878 20.5212 32.426 19.883 32.426 19.0958C32.426 18.3085 31.7878 17.6703 31.0006 17.6703C30.2134 17.6703 29.5752 18.3085 29.5752 19.0958C29.5752 19.883 30.2134 20.5212 31.0006 20.5212Z" fill="white"/>
<path d="M31.0006 20.5212C31.7878 20.5212 32.426 19.883 32.426 19.0958C32.426 18.3085 31.7878 17.6703 31.0006 17.6703C30.2134 17.6703 29.5752 18.3085 29.5752 19.0958C29.5752 19.883 30.2134 20.5212 31.0006 20.5212Z" fill="white"/>
</svg>
