<svg width="902" height="897" viewBox="0 0 902 897" fill="none" xmlns="http://www.w3.org/2000/svg">
<path d="M1617.1 -54.3077L475.552 -172.376C475.552 -172.376 105.255 432.149 370.809 552.644C444.634 586.142 502.237 601.16 553.226 603.109C631.632 606.106 697.401 592.99 777.956 577.754C833.456 567.258 894.818 549.275 978.869 557.968C1264.25 587.485 1463.25 890.433 1463.25 890.433L1617.1 -54.3077Z" fill="url(#paint0_linear)"/>
<path d="M1625.24 -133.014L483.692 -251.082C483.692 -251.082 -155.12 50.0435 199.169 368.022C346.996 500.698 457.824 545.776 558.169 555.321C698.315 568.652 817.486 512.736 983.795 529.937C1269.18 559.455 1505.5 784.469 1505.5 784.469L1625.24 -133.014Z" fill="url(#paint1_linear)"/>
<path d="M1632.88 -206.914L491.335 -324.982C491.335 -324.982 -170.399 60.9899 193.01 340.102C346.866 458.269 460.56 502.303 562.394 514.474C701.093 531.051 817.734 479.285 982.297 496.306C1127.61 511.336 1263.32 559.906 1389.29 615.915C1428.24 633.237 1503.2 671.102 1503.2 671.102L1632.88 -206.914Z" fill="url(#paint2_linear)"/>
<defs>
<linearGradient id="paint0_linear" x1="207.161" y1="1083.36" x2="302.002" y2="166.385" gradientUnits="userSpaceOnUse">
<stop/>
<stop offset="1" stop-color="#E232FC"/>
</linearGradient>
<linearGradient id="paint1_linear" x1="15.9115" y1="942.896" x2="107.713" y2="55.3101" gradientUnits="userSpaceOnUse">
<stop/>
<stop offset="1" stop-color="#E232FC"/>
</linearGradient>
<linearGradient id="paint2_linear" x1="18.9866" y1="817.167" x2="106.993" y2="-33.728" gradientUnits="userSpaceOnUse">
<stop/>
<stop offset="1" stop-color="#8F00A4"/>
</linearGradient>
</defs>
</svg>
