<svg width="205" height="51" viewBox="0 0 205 51" fill="none" xmlns="http://www.w3.org/2000/svg">
<path d="M20.75 11.21H3.85C2.81 11.21 1.9 11.59 1.14 12.35C0.38 13.11 0 14.03 0 15.06V35.36C0 36.4 0.38 37.31 1.14 38.07C1.9 38.83 2.81 39.21 3.85 39.21H4.75C5.79 39.21 6.7 38.83 7.46 38.07C8.22 37.31 8.6 36.4 8.6 35.36V18.21H16V35.36C16 36.4 16.38 37.31 17.14 38.07C17.9 38.83 18.81 39.21 19.85 39.21H20.75C21.79 39.21 22.7 38.83 23.46 38.07C24.22 37.31 24.6 36.4 24.6 35.36V15.06C24.6 14.02 24.22 13.11 23.46 12.35C22.7 11.6 21.79 11.21 20.75 11.21Z" fill="white"/>
<path d="M41.39 10.71C37.12 10.71 33.73 12.01 31.31 14.57C28.94 17.08 27.74 20.66 27.74 25.21C27.74 29.75 28.94 33.34 31.32 35.9C33.74 38.43 37.13 39.71 41.39 39.71C45.66 39.71 49.03 38.43 51.42 35.9C53.82 33.35 55.04 29.76 55.04 25.21C55.04 20.66 53.82 17.08 51.42 14.58C49.04 12.01 45.66 10.71 41.39 10.71ZM37.76 19.24C38.57 18.11 39.76 17.56 41.4 17.56C43.03 17.56 44.2 18.11 44.98 19.23L45 19.25C45.87 20.44 46.31 22.44 46.31 25.21C46.31 27.98 45.87 30.01 44.99 31.23C44.22 32.32 43.04 32.86 41.41 32.86C39.77 32.86 38.58 32.32 37.78 31.24C36.94 30.02 36.51 27.99 36.51 25.21C36.49 22.44 36.92 20.43 37.76 19.24Z" fill="white"/>
<path d="M84.3499 32.38V15.06C84.3499 14.02 83.9699 13.11 83.2099 12.35C82.4499 11.59 81.5399 11.21 80.4999 11.21H66.1999C65.1599 11.21 64.2499 11.59 63.4899 12.35C62.7299 13.11 62.3499 14.02 62.3499 15.06V17.06C62.3499 21.04 62.2699 23.86 62.0999 25.48C61.9799 26.96 61.7199 28.15 61.3299 29C60.9499 29.84 60.2099 30.97 59.0999 32.36C58.3799 32.4 57.7399 32.69 57.1999 33.23C56.6999 33.78 56.4399 34.47 56.4399 35.25V41.35C56.4399 42.38 56.7999 43.28 57.5299 44.06C58.2899 44.82 59.1999 45.2 60.2399 45.2H60.9999C62.0399 45.2 62.9499 44.82 63.7099 44.06C64.4699 43.3 64.8499 42.39 64.8499 41.35V39.2H79.3499V41.35C79.3499 42.39 79.7299 43.3 80.4899 44.06C81.2499 44.82 82.1599 45.2 83.1999 45.2H83.9499C84.9999 45.2 85.8999 44.81 86.6099 44.06C87.3699 43.3 87.7499 42.39 87.7499 41.35V36.2C87.7499 35.16 87.3699 34.25 86.6299 33.51C85.9999 32.85 85.2299 32.47 84.3499 32.38ZM68.7199 32.36C69.2499 31.48 69.6199 30.69 69.8499 29.99C70.2099 28.94 70.4499 27.59 70.5499 25.98C70.6499 24.47 70.6999 21.81 70.6999 18.07H75.9499V32.37H68.7199V32.36Z" fill="white"/>
<path d="M106.27 10.71C104.53 10.71 102.97 11.03 101.64 11.66C100.74 12.09 99.84 12.71 98.96 13.5C98.76 13.07 98.48 12.69 98.13 12.36C97.37 11.6 96.44 11.22 95.37 11.22H94.77C93.73 11.22 92.82 11.6 92.06 12.36C91.3 13.12 90.92 14.03 90.92 15.07V46.37C90.92 47.41 91.3 48.32 92.06 49.08C92.82 49.84 93.73 50.22 94.77 50.22H95.77C96.82 50.22 97.72 49.83 98.43 49.08C99.19 48.32 99.57 47.41 99.57 46.37V37.59C101.54 39 103.79 39.72 106.27 39.72C109.54 39.72 112.28 38.38 114.4 35.75C116.5 33.15 117.57 29.6 117.57 25.22C117.57 20.71 116.55 17.15 114.56 14.65C112.5 12.04 109.71 10.71 106.27 10.71ZM109.02 25.21C109.02 27.78 108.56 29.72 107.66 30.98C106.82 32.15 105.71 32.71 104.27 32.71C102.98 32.71 101.87 32.29 100.89 31.42C99.97 30.58 99.52 29.66 99.52 28.61V21.81C99.52 20.76 99.97 19.84 100.88 19.01C101.87 18.14 102.97 17.71 104.27 17.71C106.31 17.71 109.02 18.49 109.02 25.21Z" fill="white"/>
<path d="M143.2 11.21H141.9C140.82 11.21 139.84 11.53 139 12.16C138.16 12.79 137.59 13.62 137.3 14.61L133 28.16L128.7 14.6C128.37 13.61 127.78 12.79 126.95 12.17C126.11 11.54 125.15 11.22 124.1 11.22H122.5C121.47 11.22 120.62 11.66 120.01 12.53C119.46 13.38 119.38 14.32 119.77 15.24L128.74 38.12C128.75 38.15 128.75 38.19 128.75 38.23C128.75 38.27 128.75 38.31 128.74 38.34C128.07 40.15 127.34 41.43 126.56 42.16C125.82 42.87 124.74 43.32 123.36 43.48C122.39 43.57 121.56 43.95 120.87 44.64C120.19 45.36 119.85 46.21 119.85 47.17C119.85 48.14 120.22 49 120.92 49.65C121.61 50.29 122.41 50.62 123.34 50.62C123.4 50.62 123.47 50.62 123.54 50.62C127.05 50.34 129.85 49.28 131.87 47.48C133.89 45.71 135.68 42.77 137.2 38.73L146 15.23C146.35 14.29 146.22 13.34 145.63 12.51C145.03 11.65 144.19 11.21 143.2 11.21Z" fill="white"/>
<path d="M163.88 11.7101C161.08 11.7101 158.74 12.4901 156.89 14.0301C156.97 11.4101 157.51 9.62006 158.51 8.70006C159.65 7.65006 161.93 7.12006 165.28 7.12006C167.2 7.12006 168.92 7.05006 170.38 6.92006C171.35 6.83006 172.15 6.40006 172.74 5.68006C173.37 4.96006 173.69 4.12006 173.69 3.17006C173.69 2.25006 173.31 1.44006 172.62 0.84006C171.95 0.21006 171.1 -0.0699404 170.15 0.0300596C168.72 0.16006 167.04 0.23006 165.14 0.23006C159.45 0.23006 155.21 1.41006 152.53 3.72006C149.81 6.08006 148.44 9.83006 148.44 14.8801V24.8801C148.44 29.5801 149.64 33.2801 152.01 35.8601C154.4 38.4301 157.81 39.7301 162.14 39.7301C166.21 39.7301 169.43 38.5001 171.72 36.0601C173.99 33.6101 175.14 30.1401 175.14 25.7301C175.14 21.5401 174.07 18.1401 171.96 15.6501C169.83 13.0301 167.12 11.7101 163.88 11.7101ZM156.93 25.4601C156.93 23.2701 157.41 21.5601 158.35 20.4001C159.29 19.2601 160.5 18.7101 162.03 18.7101C163.41 18.7101 164.5 19.2801 165.39 20.4801C166.34 21.6901 166.83 23.4401 166.83 25.6601V25.7601C166.83 28.1201 166.38 29.9201 165.49 31.1001C164.65 32.1901 163.47 32.7101 161.88 32.7101C160.42 32.7101 159.27 32.1501 158.37 30.9901C157.42 29.7801 156.93 28.0801 156.93 25.9601V25.4601Z" fill="white"/>
<path d="M203.15 12.36C202.39 11.6 201.48 11.22 200.44 11.22H199.34C197.1 11.22 195.33 12.24 194.22 14.18L187.94 25.45V15.06C187.94 14.02 187.56 13.11 186.8 12.35C186.04 11.59 185.13 11.21 184.09 11.21H183.14C182.1 11.21 181.19 11.59 180.43 12.35C179.67 13.11 179.29 14.02 179.29 15.06V35.36C179.29 36.4 179.67 37.31 180.43 38.07C181.19 38.83 182.1 39.21 183.14 39.21H184.24C186.48 39.21 188.25 38.19 189.36 36.25L195.64 24.98V35.36C195.64 36.4 196.02 37.31 196.78 38.07C197.54 38.83 198.45 39.21 199.49 39.21H200.44C201.48 39.21 202.39 38.83 203.15 38.07C203.91 37.31 204.29 36.4 204.29 35.36V15.06C204.3 14.03 203.91 13.11 203.15 12.36Z" fill="white"/>
</svg>
